<?xml version="1.0" encoding="UTF-8" standalone="no"?>
<!DOCTYPE svg PUBLIC "-//W3C//DTD SVG 1.1//EN" "http://www.w3.org/Graphics/SVG/1.1/DTD/svg11.dtd">
<svg width="100%" height="100%" viewBox="0 0 527 96" version="1.1" xmlns="http://www.w3.org/2000/svg" xmlns:xlink="http://www.w3.org/1999/xlink" xml:space="preserve" xmlns:serif="http://www.serif.com/" style="fill-rule:evenodd;clip-rule:evenodd;stroke-linejoin:round;stroke-miterlimit:1.41421;">
    <g transform="matrix(1,0,0,1,-376.601,-352.345)">
        <g transform="matrix(2.0842,0,0,2.0842,208.036,193.989)">
            <g transform="matrix(0.271546,0,0,0.271546,48.8246,13.4669)">
                <g transform="matrix(93.7206,0,0,93.7206,340.14,345.643)">
                    <path d="M0.284,-0.23L0.284,-0.405C0.324,-0.405 0.344,-0.421 0.344,-0.451C0.344,-0.479 0.328,-0.493 0.298,-0.493C0.267,-0.493 0.251,-0.474 0.251,-0.436L0.251,0L0.053,0L0.053,-0.415C0.053,-0.458 0.058,-0.493 0.066,-0.521C0.075,-0.548 0.09,-0.574 0.11,-0.598C0.134,-0.624 0.163,-0.645 0.198,-0.66C0.233,-0.675 0.27,-0.683 0.307,-0.683C0.375,-0.683 0.432,-0.66 0.478,-0.615C0.524,-0.569 0.547,-0.513 0.547,-0.445C0.547,-0.38 0.526,-0.327 0.485,-0.286C0.447,-0.249 0.39,-0.23 0.314,-0.23L0.284,-0.23Z" style="fill-rule:nonzero;"/>
                </g>
                <g transform="matrix(93.7206,0,0,93.7206,402.184,345.643)">
                    <path d="M0.309,-0.334L0.309,-0.159L0.251,-0.159L0.251,0L0.053,0L0.053,-0.424C0.053,-0.506 0.076,-0.57 0.12,-0.615C0.165,-0.66 0.228,-0.683 0.309,-0.683C0.387,-0.683 0.445,-0.663 0.482,-0.621C0.52,-0.58 0.539,-0.517 0.539,-0.431L0.539,0L0.34,0L0.34,-0.417C0.34,-0.444 0.337,-0.462 0.331,-0.472C0.325,-0.482 0.314,-0.487 0.298,-0.487C0.267,-0.487 0.251,-0.464 0.251,-0.417L0.251,-0.334L0.309,-0.334Z" style="fill-rule:nonzero;"/>
                </g>
                <g transform="matrix(93.7206,0,0,93.7206,467.02,345.643)">
                    <rect x="0.067" y="-0.667" width="0.198" height="0.667" style="fill-rule:nonzero;"/>
                </g>
                <g transform="matrix(93.7206,0,0,93.7206,507.464,345.643)">
                    <path d="M0.053,0L0.053,-0.433C0.053,-0.508 0.076,-0.569 0.121,-0.615C0.167,-0.66 0.227,-0.683 0.303,-0.683C0.378,-0.683 0.435,-0.661 0.475,-0.617C0.515,-0.572 0.535,-0.509 0.535,-0.426L0.535,0L0.337,0L0.337,-0.426C0.337,-0.466 0.322,-0.487 0.293,-0.487C0.265,-0.487 0.251,-0.466 0.251,-0.426L0.251,0L0.053,0Z" style="fill-rule:nonzero;"/>
                </g>
                <g transform="matrix(93.7206,0,0,93.7206,572.025,345.643)">
                    <path d="M0.357,-0.475L0.357,0L0.159,0L0.159,-0.475L0.007,-0.475L0.007,-0.667L0.508,-0.667L0.508,-0.475L0.357,-0.475Z" style="fill-rule:nonzero;"/>
                </g>
                <g transform="matrix(93.7206,0,0,93.7206,629.63,345.643)">
                    <path d="M0.422,-0.407L0.422,-0.259L0.293,-0.259C0.275,-0.259 0.263,-0.256 0.256,-0.251C0.248,-0.246 0.245,-0.237 0.245,-0.225C0.245,-0.211 0.248,-0.201 0.256,-0.197C0.263,-0.193 0.279,-0.19 0.302,-0.19L0.435,-0.19L0.435,0L0.279,0C0.206,0 0.15,-0.017 0.111,-0.052C0.073,-0.087 0.053,-0.138 0.053,-0.204L0.053,-0.465C0.053,-0.529 0.072,-0.579 0.108,-0.614C0.145,-0.649 0.196,-0.667 0.263,-0.667L0.435,-0.667L0.435,-0.475L0.309,-0.475C0.274,-0.475 0.257,-0.464 0.257,-0.442C0.257,-0.429 0.261,-0.42 0.27,-0.415C0.278,-0.41 0.292,-0.407 0.313,-0.407L0.422,-0.407Z" style="fill-rule:nonzero;"/>
                </g>
                <g transform="matrix(93.7206,0,0,93.7206,684.169,345.643)">
                    <path d="M0.265,-0.475L0.265,0L0.067,0L0.067,-0.667L0.325,-0.667C0.438,-0.667 0.527,-0.641 0.591,-0.589C0.667,-0.528 0.706,-0.444 0.706,-0.339C0.706,-0.238 0.673,-0.156 0.608,-0.092C0.543,-0.028 0.459,0.004 0.356,0.004C0.344,0.004 0.325,0.003 0.297,0.002L0.297,-0.194L0.329,-0.194C0.445,-0.194 0.502,-0.242 0.502,-0.339C0.502,-0.43 0.446,-0.475 0.332,-0.475L0.265,-0.475Z" style="fill-rule:nonzero;"/>
                </g>
                <g transform="matrix(93.7206,0,0,93.7206,794.941,345.643)">
                    <path d="M0.759,-0.667L0.759,-0.187C0.759,-0.127 0.741,-0.078 0.705,-0.04C0.668,-0.002 0.622,0.017 0.564,0.017C0.495,0.017 0.443,-0.015 0.406,-0.078C0.384,-0.044 0.36,-0.02 0.334,-0.005C0.308,0.009 0.277,0.017 0.239,0.017C0.179,0.017 0.133,-0.002 0.101,-0.04C0.069,-0.078 0.053,-0.132 0.053,-0.203L0.053,-0.667L0.251,-0.667L0.251,-0.233C0.251,-0.211 0.253,-0.197 0.257,-0.19C0.26,-0.184 0.267,-0.18 0.277,-0.18C0.297,-0.18 0.307,-0.197 0.307,-0.229L0.307,-0.667L0.505,-0.667L0.505,-0.233C0.505,-0.212 0.507,-0.198 0.51,-0.191C0.514,-0.184 0.521,-0.18 0.531,-0.18C0.551,-0.18 0.561,-0.198 0.561,-0.233L0.561,-0.667L0.759,-0.667Z" style="fill-rule:nonzero;"/>
                </g>
                <g transform="matrix(93.7206,0,0,93.7206,880.415,345.643)">
                    <path d="M0.383,-0.683C0.477,-0.683 0.558,-0.649 0.626,-0.58C0.693,-0.511 0.727,-0.429 0.727,-0.333C0.727,-0.236 0.693,-0.153 0.625,-0.085C0.557,-0.017 0.474,0.017 0.377,0.017C0.28,0.017 0.198,-0.018 0.129,-0.086C0.061,-0.154 0.027,-0.237 0.027,-0.333C0.027,-0.431 0.061,-0.514 0.13,-0.582C0.199,-0.649 0.283,-0.683 0.383,-0.683ZM0.377,-0.487C0.336,-0.487 0.302,-0.472 0.273,-0.442C0.244,-0.412 0.23,-0.376 0.23,-0.333C0.23,-0.291 0.244,-0.255 0.273,-0.225C0.302,-0.195 0.337,-0.18 0.377,-0.18C0.418,-0.18 0.453,-0.195 0.481,-0.225C0.51,-0.255 0.524,-0.291 0.524,-0.333C0.524,-0.376 0.51,-0.412 0.481,-0.442C0.453,-0.472 0.418,-0.487 0.377,-0.487Z" style="fill-rule:nonzero;"/>
                </g>
                <g transform="matrix(93.7206,0,0,93.7206,960.398,345.643)">
                    <path d="M0.053,-0.667L0.251,-0.667L0.251,-0.271C0.251,-0.24 0.256,-0.219 0.266,-0.209C0.276,-0.198 0.296,-0.193 0.325,-0.193L0.335,-0.193L0.335,0L0.283,0C0.21,0 0.154,-0.021 0.114,-0.063C0.073,-0.105 0.053,-0.164 0.053,-0.239L0.053,-0.667Z" style="fill-rule:nonzero;"/>
                </g>
                <g transform="matrix(93.7206,0,0,93.7206,1001.21,345.643)">
                    <path d="M0.317,-0.353L0.317,-0.174L0.251,-0.174L0.251,0L0.053,0L0.053,-0.414C0.053,-0.491 0.077,-0.556 0.125,-0.607C0.173,-0.658 0.234,-0.683 0.307,-0.683C0.387,-0.683 0.454,-0.648 0.508,-0.579L0.346,-0.46C0.337,-0.486 0.32,-0.499 0.297,-0.499C0.267,-0.499 0.251,-0.477 0.251,-0.435L0.251,-0.353L0.317,-0.353Z" style="fill-rule:nonzero;"/>
                </g>
            </g>
            <g transform="matrix(-0.488823,0,0,0.488823,129.873,75.0017)">
                <path d="M36.163,71.443C36.957,72.054 37.69,72.726 38.643,73.179C39.335,72.081 40.458,71.087 40.751,69.582C40.863,69.014 40.676,68.447 40.751,67.844C40.923,66.472 41.409,65.071 41.497,63.627C41.337,63.621 41.325,63.468 41.124,63.503C40.141,64.898 38.942,66.668 39.139,68.838C38.094,69.652 36.893,70.313 36.163,71.443Z"/>
                <path d="M41.87,74.296C42.343,75.022 43.679,74.885 44.226,75.537C48.259,76.467 51.827,77.859 54.893,79.755C55.367,77.045 54.747,74.364 53.901,72.56C52.986,71.972 52.298,71.215 52.165,70.08C52.001,68.698 51.657,67.909 51.544,66.73C51.503,66.292 51.628,65.764 51.544,65.366C51.484,65.078 51.199,64.825 51.049,64.498C50.448,63.189 49.853,62.13 48.692,61.644C48.505,62.169 49.022,62.626 48.817,62.76C48.616,62.083 48.102,62.496 48.072,63.008C48.095,62.653 48.088,62.331 47.699,62.388C47.309,62.477 48.04,63.097 47.699,63.133C46.902,62.691 47.263,61.089 46.335,60.776C45.828,62.129 45.957,64.119 44.971,64.994C44.804,66.865 43.853,68.743 44.723,70.577C44.241,70.673 44.026,71.036 43.606,71.196C43.226,72.428 42.249,73.064 41.87,74.296Z"/>
                <path d="M58.244,81.243C59.598,81.542 60.609,82.184 62.089,82.36C62.136,81.873 62.497,81.551 62.708,81.119C63.748,79 63.772,75.861 63.826,72.561C62.569,70.833 60.725,69.771 59.484,68.042C59.141,67.564 59.068,67 58.367,67L58.119,67C58.225,68 58.829,69.938 58.987,71.764C59.265,72.184 59.804,71.25 59.855,71.48C58.801,74.228 58.049,77.245 58.244,81.243Z"/>
                <path d="M49.974,2C22.374,2 0,24.374 0,51.974C0,65.964 5.756,78.606 15.021,87.677C14.797,87.076 14.899,86.446 15.199,85.833C17.387,84.761 18.572,82.6 18.425,79.506C18.391,78.804 17.946,77.738 18.176,76.777C19.154,75.987 19.992,76.326 20.905,76.156C22.55,75.851 23.849,74.659 24.874,73.925C25.291,73.625 25.781,73.478 26.239,73.18C28.334,71.819 29.461,70.281 32.566,70.948C32.78,70.335 33.131,69.859 33.806,69.708C34.73,68.568 35.499,66.875 36.411,65.49C36.584,65.226 36.898,65.144 37.031,64.87C37.192,64.539 37.142,64.03 37.28,63.629C37.449,63.137 37.808,62.771 37.9,62.389C38.108,61.53 37.833,61.01 37.652,60.529C37.112,59.094 36.942,57.548 36.907,55.939C36.438,55.76 36.669,56.28 36.287,56.187C35.664,54.559 35.845,53.346 35.543,51.349C35.179,51.348 35.123,51.923 34.799,51.597C34.61,50.75 35.501,50.45 35.171,49.861C34.801,49.505 34.803,50.222 34.303,50.109C34.448,49.096 35.069,48.559 35.047,47.379C34.867,47.312 34.406,47.525 34.427,47.255C34.814,46.401 35.27,45.618 35.419,44.526C35.029,44.385 35.118,44.721 34.923,44.775C34.46,43.777 35.623,42.784 35.295,41.922C34.894,41.768 35.201,42.322 34.799,42.17C35.009,40.396 36.028,39.43 37.031,38.448C37.29,37.301 37.991,36.597 38.024,35.223C38.372,34.991 38.546,34.586 38.644,34.106C38.479,33.802 38.183,34.242 38.148,33.981C38.354,33.648 38.818,33.03 38.148,32.865C38.507,32.356 38.944,31.925 39.14,31.252C39.138,31.047 38.796,31.183 38.767,31.004C39.939,30.198 39.504,28.202 39.14,26.786C39.321,26.678 39.533,26.599 39.512,26.289C39.244,25.606 38.759,25.14 38.396,24.552C38.622,23.878 38.843,23.227 38.891,22.692C39.184,22.69 39.256,22.906 39.637,22.816C38.859,21.742 39.864,20.359 40.629,19.715C41.678,19.774 41.841,20.902 42.49,21.575C42.949,22.052 43.676,22.186 44.102,22.692C44.403,23.049 44.509,23.513 44.723,23.933C45.181,24.054 45.392,24.421 46.088,24.305C46.456,24.846 47.139,25.073 47.452,25.669C47.935,26.881 48.467,28.044 48.692,29.515C49.836,30.19 51.127,30.719 51.297,32.368C50.682,32.672 50.028,32.332 49.312,32.368C49.462,32.77 49.873,33.11 49.932,33.608C50.033,34.458 49.501,35.1 49.683,35.841C49.972,37.008 51.181,36.874 51.668,38.073C51.434,38.129 50.92,37.905 51.048,38.322C51.63,38.691 52.239,39.032 52.784,39.438C52.324,39.35 52.252,39.649 51.792,39.562C51.812,40.121 52.56,39.953 52.536,40.555C52.28,40.63 52.067,40.746 52.164,41.175C52.524,41.311 53.045,41.287 53.404,41.423C53.289,41.721 52.906,41.751 53.032,42.291C53.713,42.686 54.011,43.464 54.271,44.276C55.074,44.672 55.869,45.077 56.505,45.64C56.544,45.808 56.682,45.876 56.628,46.137C57.869,46.637 58.157,48.09 58.985,48.866C60.003,49.818 61.602,50.46 62.706,51.099C63.129,51.343 63.374,51.633 63.824,51.968C64.464,52.445 65.633,52.179 66.303,52.835C66.838,53.944 67.911,54.336 68.536,55.193C69.187,56.084 69.272,57.184 70.148,58.045C71.268,58.208 71.877,58.881 72.628,59.411C72.628,59.824 73.032,59.833 73.002,60.278C74.823,61.641 74.462,64.674 74.985,66.232C75.717,68.403 76.266,69.95 78.583,70.326C79.953,70.549 81.447,69.905 82.305,70.821C80.816,70.78 80.326,71.737 79.203,72.061C78.812,72.289 79.62,72.893 79.203,73.091C78.448,73.012 78.061,74 78.091,74L76.975,74C77.035,74 76.747,74.271 76.602,74.582C76.143,74.382 75.692,73.95 74.99,73.991C74.918,74.209 75.14,74.625 74.867,74.638C74.522,74.445 74.177,74.205 73.751,74.096C73.769,74.403 73.773,74.673 73.502,74.693C72.388,74.36 71.994,72.912 70.898,72.942C70.504,71.971 70.305,70.799 69.905,69.837C70.019,68.81 69.828,68.781 69.782,67.848C69.615,67.603 68.916,67.887 68.913,67.476C69.01,66.965 68.723,66.837 68.79,66.359C68.165,66.528 68.379,65.859 68.169,65.614C68.011,65.44 67.561,65.559 67.548,65.241C67.343,64.703 67.455,63.846 66.928,63.629C65.926,65.769 67.237,67.368 67.922,69.211C68.02,69.478 68.019,70.154 68.292,70.7C68.32,70.755 68.605,70.853 68.661,70.948C68.838,71.244 69.405,72.033 69.405,72.063C69.405,72.042 68.842,72.697 68.78,72.808C68.372,73.534 68.453,73.784 68.276,74.544C67.779,76.67 66.303,78.514 66.894,80.871C66.244,81.669 65.552,82.46 65.245,83.6C66.349,84.274 67.131,85.201 68.4,85.709C69.599,87.446 71.647,88.48 72.639,90.422C73.788,90.803 74,93.026 75,93.44L75,95.55C90,86.987 100.232,70.687 100.232,51.973C100.232,24.374 77.574,2 49.974,2Z"/>
            </g>
        </g>
    </g>
</svg>
