<?xml version="1.0" encoding="UTF-8" standalone="no"?>
<!DOCTYPE svg PUBLIC "-//W3C//DTD SVG 1.1//EN" "http://www.w3.org/Graphics/SVG/1.1/DTD/svg11.dtd">
<svg width="100%" height="100%" viewBox="0 0 521 386" version="1.1" xmlns="http://www.w3.org/2000/svg" xmlns:xlink="http://www.w3.org/1999/xlink" xml:space="preserve" xmlns:serif="http://www.serif.com/" style="fill-rule:evenodd;clip-rule:evenodd;stroke-miterlimit:10;">
    <g transform="matrix(1,0,0,1,-687.092,-75.8753)">
        <g id="businessman" transform="matrix(0.464422,0,0,0.464422,947.168,268.564)">
            <g transform="matrix(1,0,0,1,-560,-414.9)">
                <clipPath id="_clip1">
                    <rect x="0" y="0" width="1120" height="829.801"/>
                </clipPath>
                <g clip-path="url(#_clip1)">
                    <ellipse cx="975.579" cy="811.059" rx="144.421" ry="18.742" style="fill:rgb(63,61,86);"/>
                    <rect x="0" y="27.5" width="436" height="272" style="fill:rgb(242,242,242);"/>
                    <rect x="27.5" y="1" width="436" height="272" style="fill:none;stroke:rgb(63,61,86);stroke-width:2px;"/>
                    <g transform="matrix(1,0,0,1,-40,-34.5997)">
                        <path d="M352.468,237.568C370.09,219.946 380,196.02 380,171.1C380,119.533 337.567,77.1 286,77.1L286,171.1L352.468,237.568Z" style="fill:rgb(63,61,86);fill-rule:nonzero;"/>
                    </g>
                    <g transform="matrix(1,0,0,1,-40,-34.5997)">
                        <path d="M286,77.1C234.431,77.106 192,119.542 192,171.111C192,205.482 210.85,237.219 241.032,253.664L286,171.1L286,77.1Z" style="fill-rule:nonzero;"/>
                    </g>
                    <g transform="matrix(1,0,0,1,-40,-34.5997)">
                        <path d="M352.468,237.568L286,171.1L241.032,253.664C277.535,273.524 323.077,266.946 352.468,237.568Z" style="fill:rgb(87,117,165);fill-rule:nonzero;"/>
                    </g>
                    <rect x="44" y="216.5" width="18" height="18"/>
                    <rect x="70" y="216.5" width="18" height="18" style="fill:rgb(63,61,86);"/>
                    <rect x="96" y="216.5" width="18" height="18" style="fill:rgb(87,90,137);"/>
                    <rect x="355" y="220.5" width="74" height="3" style="fill:rgb(63,61,86);"/>
                    <rect x="355" y="229.5" width="74" height="3" style="fill:rgb(63,61,86);"/>
                    <rect x="355" y="238.5" width="74" height="3" style="fill:rgb(63,61,86);"/>
                    <rect x="137" y="406.5" width="248" height="272" style="fill:rgb(242,242,242);"/>
                    <rect x="162" y="380.5" width="248" height="272" style="fill:none;stroke:rgb(63,61,86);stroke-width:2px;"/>
                    <rect x="175" y="621.814" width="13.371" height="13.371"/>
                    <rect x="194.314" y="621.814" width="13.371" height="13.371" style="fill:rgb(63,61,86);"/>
                    <rect x="213.629" y="621.814" width="13.371" height="13.371" style="fill:rgb(87,90,137);"/>
                    <rect x="325" y="627.622" width="52" height="2.108" style="fill:rgb(63,61,86);"/>
                    <rect x="325" y="633.946" width="52" height="2.108" style="fill:rgb(63,61,86);"/>
                    <rect x="325" y="640.27" width="52" height="2.108" style="fill:rgb(63,61,86);"/>
                    <g transform="matrix(1,0,0,1,-40,-34.5997)">
                        <path d="M326,463.1L326,485.1C326,485.1 326,485.1 326,485.1C362.207,485.1 392,514.893 392,551.1C392,568.597 385.042,585.396 372.669,597.769L388.225,613.325C404.722,596.828 414,574.43 414,551.1C414,502.824 374.275,463.1 326,463.1L326,463.1Z" style="fill:rgb(63,61,86);fill-rule:nonzero;"/>
                    </g>
                    <g transform="matrix(1,0,0,1,-40,-34.5997)">
                        <path d="M388.225,613.325L372.669,597.769C349.441,621.002 312.221,623.526 286.069,603.64L272.753,621.161C307.628,647.667 357.251,644.3 388.225,613.325Z" style="fill:rgb(87,117,165);fill-rule:nonzero;"/>
                    </g>
                    <g transform="matrix(1,0,0,1,-40,-34.5997)">
                        <path d="M260,551.1C260,514.893 289.793,485.1 326,485.1L326,463.1C326,463.1 325.999,463.1 325.999,463.1C277.724,463.1 238,502.824 238,551.099C238,578.58 250.873,604.533 272.753,621.161L286.069,603.64C269.645,591.183 259.985,571.713 260,551.1Z" style="fill-rule:nonzero;"/>
                    </g>
                    <g transform="matrix(1,0,0,1,-40,-34.5997)">
                        <path d="M971.624,175.593C971.624,175.593 967.544,205.904 978.036,209.401C988.528,212.898 985.614,239.712 985.614,239.712L954.138,263.61L926.159,265.942L919.164,229.802L923.244,220.476C923.244,220.476 938.982,201.823 927.907,182.588C916.832,163.352 971.624,175.593 971.624,175.593Z" style="fill:rgb(255,185,185);fill-rule:nonzero;"/>
                    </g>
                    <g transform="matrix(1,0,0,1,-40,-34.5997)">
                        <path d="M971.624,175.593C971.624,175.593 967.544,205.904 978.036,209.401C988.528,212.898 985.614,239.712 985.614,239.712L954.138,263.61L926.159,265.942L919.164,229.802L923.244,220.476C923.244,220.476 938.982,201.823 927.907,182.588C916.832,163.352 971.624,175.593 971.624,175.593Z" style="fill-opacity:0.1;fill-rule:nonzero;"/>
                    </g>
                    <g transform="matrix(1,0,0,1,-40,-34.5997)">
                        <path d="M942.48,411.666L905.757,497.935C905.757,497.935 877.195,481.614 860.291,483.362C843.387,485.111 822.403,464.71 822.403,464.71L843.387,363.286L882.441,255.45L936.651,289.841L942.48,411.666Z" style="fill:rgb(87,90,137);fill-rule:nonzero;"/>
                    </g>
                    <g transform="matrix(1,0,0,1,-40,-34.5997)">
                        <path d="M942.48,411.666L905.757,497.935C905.757,497.935 877.195,481.614 860.291,483.362C843.387,485.111 822.403,464.71 822.403,464.71L843.387,363.286L882.441,255.45L936.651,289.841L942.48,411.666Z" style="fill-opacity:0.1;fill-rule:nonzero;"/>
                    </g>
                    <path d="M960.186,743.708L960.186,771.687L933.956,771.687L938.036,739.045L960.186,743.708Z" style="fill:rgb(87,90,137);fill-rule:nonzero;"/>
                    <path d="M1028.38,695.328L1047.62,706.986L1033.63,739.045L1019.06,737.296L1005.07,717.478L1028.38,695.328Z" style="fill:rgb(87,90,137);fill-rule:nonzero;"/>
                    <g transform="matrix(1,0,0,1,-40,-34.5997)">
                        <path d="M1005.43,403.505L1039.82,484.528C1039.82,484.528 1027.58,574.294 1028.16,581.872C1028.75,589.449 1029.33,592.364 1026.42,598.776C1023.5,605.188 1022.34,609.268 1024.09,616.846C1025.83,624.423 1026.42,627.338 1025.25,630.252C1024.09,633.167 1015.93,753.243 1011.84,761.404C1007.76,769.564 1014.18,782.971 1010.1,784.137C1006.01,785.303 975.705,782.388 973.956,775.393C972.207,768.399 979.785,751.495 975.705,746.249C971.624,741.003 976.288,552.144 970.459,539.32C964.63,526.497 900.511,514.839 900.511,514.839C900.511,514.839 894.682,477.533 898.179,471.704C901.677,465.875 906.34,429.153 906.34,429.153L1005.43,403.505Z" style="fill:rgb(47,46,65);fill-rule:nonzero;"/>
                    </g>
                    <g transform="matrix(1,0,0,1,-40,-34.5997)">
                        <path d="M971.624,801.624C971.624,801.624 987.946,782.388 1001.94,801.624C1001.94,801.624 1003.1,824.357 1013.01,829.02C1022.92,833.683 1018.26,852.336 1004.27,852.919C990.277,853.502 972.207,855.833 971.624,848.255C971.042,840.678 973.956,836.015 968.71,833.683C963.464,831.351 968.71,817.945 968.71,817.945L971.624,801.624Z" style="fill:rgb(47,46,65);fill-rule:nonzero;"/>
                    </g>
                    <g transform="matrix(1,0,0,1,-40,-34.5997)">
                        <path d="M973.373,522.999C973.373,522.999 972.79,564.968 968.71,570.797C964.63,576.626 962.298,580.123 964.63,586.535C966.961,592.947 970.459,604.605 968.71,606.936C966.961,609.268 970.459,621.509 970.459,621.509C970.459,621.509 1015.34,643.076 1036.33,687.959C1036.33,687.959 1057.89,723.516 1064.31,724.099C1070.72,724.681 1078.29,720.018 1074.8,733.425C1071.3,746.831 1057.89,764.318 1047.98,762.57C1038.08,760.821 1030.5,743.917 1030.5,743.917C1030.5,743.917 952.972,665.226 944.811,662.894C936.651,660.563 913.335,641.91 909.255,630.252C905.174,618.594 896.431,521.251 900.511,514.839C904.591,508.427 919.747,499.683 919.747,499.683L973.373,522.999Z" style="fill:rgb(47,46,65);fill-rule:nonzero;"/>
                    </g>
                    <g transform="matrix(1,0,0,1,-40,-34.5997)">
                        <path d="M1074.21,727.596C1074.21,727.596 1110.35,728.762 1110.94,737.505C1111.52,746.249 1095.78,798.126 1098.11,810.367C1100.44,822.608 1080.04,850.587 1066.64,844.758C1053.23,838.929 1063.72,808.618 1063.72,808.618C1063.72,808.618 1050.32,767.233 1052.65,766.65C1054.98,766.067 1078.29,759.072 1077.13,752.078C1075.96,745.083 1074.21,727.596 1074.21,727.596Z" style="fill:rgb(47,46,65);fill-rule:nonzero;"/>
                    </g>
                    <circle cx="904.52" cy="136.039" r="36.14" style="fill:rgb(255,185,185);"/>
                    <g transform="matrix(1,0,0,1,-40,-34.5997)">
                        <path d="M980.951,226.305C980.951,226.305 961.132,247.289 946.56,243.792C931.987,240.295 924.41,215.23 924.41,215.23L898.179,210.567C898.179,210.567 879.527,293.338 879.527,301.499C879.527,309.659 898.179,397.677 898.179,413.415C898.179,429.153 883.024,438.479 906.34,437.896C929.656,437.313 918.581,429.736 952.389,429.153C986.197,428.57 991.443,436.148 998.438,423.907C1003.21,415.921 1009.1,408.658 1015.93,402.34L1003.68,359.205L1001.94,237.38C1001.94,237.38 986.991,208.235 980.182,210.567C980.182,210.567 983.865,223.39 980.951,226.305Z" style="fill-rule:nonzero;"/>
                    </g>
                    <g transform="matrix(1,0,0,1,-40,-34.5997)">
                        <path d="M973.771,205.411C973.771,205.411 1004.85,208.818 1013.59,215.23C1022.34,221.642 1046.82,226.305 1046.24,230.968C1045.65,235.631 1017.67,302.082 1017.67,302.082C1017.67,302.082 1004.85,354.542 1015.93,366.783C1027,379.024 1068.38,512.507 1061.39,523.582C1054.4,534.657 1032.25,489.774 1032.25,489.774C1032.25,489.774 1002.52,393.596 986.197,377.275C969.876,360.954 968.71,272.937 968.71,268.856C968.71,264.776 973.771,205.411 973.771,205.411Z" style="fill:rgb(87,117,165);fill-rule:nonzero;"/>
                    </g>
                    <g transform="matrix(1,0,0,1,-40,-34.5997)">
                        <path d="M928.313,212.172C928.313,212.172 890.019,197.743 876.612,203.572C863.206,209.401 855.045,210.567 855.045,210.567L850.382,267.691C850.382,267.691 848.633,349.879 833.478,369.697C818.323,389.516 808.413,472.287 810.745,480.448C813.077,488.608 806.665,502.598 816.574,499.101C826.483,495.603 853.879,415.163 853.879,415.163C853.879,415.163 853.879,369.115 870.2,356.291C886.522,343.467 913.335,290.424 914.501,277.6C915.666,264.776 926.741,229.219 926.741,229.219L928.313,212.172Z" style="fill:rgb(87,117,165);fill-rule:nonzero;"/>
                    </g>
                    <g transform="matrix(1,0,0,1,-40,-34.5997)">
                        <path d="M1059.64,395.928C1059.64,395.928 1042.15,428.57 1039.82,434.399C1037.49,440.228 1021.17,479.865 997.855,471.121C974.539,462.378 1020.59,419.827 1020.59,419.827L1031.08,384.27C1031.08,384.27 1058.48,378.441 1059.64,395.928Z" style="fill:rgb(255,185,185);fill-rule:nonzero;"/>
                    </g>
                    <g transform="matrix(1,0,0,1,-40,-34.5997)">
                        <path d="M860.874,210.567L855.045,210.567C855.045,210.567 849.216,205.904 842.221,208.818C835.227,211.733 818.906,207.652 818.906,209.401C818.906,211.15 800.836,204.155 793.258,207.652C785.68,211.15 758.284,212.315 758.284,212.315C758.284,212.315 747.209,240.294 754.787,245.541C762.365,250.787 773.44,246.706 778.686,250.787C783.932,254.867 793.841,250.204 797.338,255.45C800.836,260.696 813.659,270.022 816.574,264.193C819.488,258.364 813.659,253.118 825.9,259.53C838.141,265.942 857.377,265.942 857.377,265.942L860.874,210.567Z" style="fill:rgb(87,117,165);fill-rule:nonzero;"/>
                    </g>
                    <g transform="matrix(1,0,0,1,-40,-34.5997)">
                        <path d="M947.778,143.937C942.887,142.807 937.811,144.059 932.857,144.871C927.904,145.682 922.445,145.95 918.256,143.186C915.161,141.145 913.259,137.769 911.472,134.521C910.727,133.361 910.23,132.059 910.013,130.698C909.803,128.295 911.331,126.104 912.954,124.32C920.491,116.035 931.505,111.501 942.612,110.061C951.742,108.877 961.262,109.67 969.693,113.368C978.125,117.066 985.373,123.838 988.688,132.427C990.214,136.824 991.168,141.398 991.524,146.038C992.025,149.452 992.09,152.916 991.716,156.346C991.269,158.889 990.601,161.388 989.718,163.814L984.227,180.395C983.832,181.962 983.095,183.422 982.068,184.669C980.987,185.92 979.198,186.312 977.693,185.627C978.133,183.827 978.2,181.955 977.89,180.127C977.539,178.267 976.085,176.8 974.228,176.434C972.204,176.219 970.475,177.788 968.555,178.464C967.911,178.655 967.243,178.752 966.572,178.752C963.287,178.752 960.425,176.432 959.744,173.219C959.441,171.323 959.95,169.294 959.231,167.514C958.39,165.428 956.157,164.335 954.48,162.837C951.361,159.958 950.188,155.514 951.479,151.471C951.928,150.091 953.196,149.464 952.943,147.879C952.61,145.799 949.544,144.345 947.778,143.937Z" style="fill:rgb(47,46,65);fill-rule:nonzero;"/>
                    </g>
                    <rect x="507" y="236.5" width="248" height="272" style="fill:rgb(242,242,242);"/>
                    <rect x="532" y="210.5" width="248" height="272" style="fill:none;stroke:rgb(63,61,86);stroke-width:2px;"/>
                    <path d="M556,227.5L556,435.5L757,435.5" style="fill:none;fill-rule:nonzero;stroke:rgb(63,61,86);stroke-width:2px;"/>
                    <rect x="567" y="362.5" width="45" height="72" style="fill:rgb(87,117,165);"/>
                    <rect x="632" y="313.5" width="45" height="121" style="fill:rgb(63,61,86);"/>
                    <rect x="697" y="256.5" width="45" height="178"/>
                    <rect x="553" y="451.814" width="13.371" height="13.371"/>
                    <rect x="572.314" y="451.814" width="13.371" height="13.371" style="fill:rgb(63,61,86);"/>
                    <rect x="591.629" y="451.814" width="13.371" height="13.371" style="fill:rgb(87,90,137);"/>
                    <rect x="703" y="457.622" width="52" height="2.108" style="fill:rgb(63,61,86);"/>
                    <rect x="703" y="463.946" width="52" height="2.108" style="fill:rgb(63,61,86);"/>
                    <rect x="703" y="470.27" width="52" height="2.108" style="fill:rgb(63,61,86);"/>
                    <g transform="matrix(1,0,0,1,-40,-34.5997)">
                        <path d="M764.308,212.282C774.936,212.744 782.833,222.383 781.684,232.959C780.642,242.541 776.8,254.463 764.696,259.043C743.129,267.204 744.295,221.155 748.375,219.406C751.095,218.24 755.37,211.893 764.308,212.282Z" style="fill:rgb(255,185,185);fill-rule:nonzero;"/>
                    </g>
                    <g transform="matrix(1,0,0,1,-40,-34.5997)">
                        <path d="M1039.82,227.854L1046.24,230.968C1046.24,230.968 1060.22,259.53 1060.81,263.61C1061.39,267.691 1070.72,282.846 1067.22,286.926C1063.72,291.006 1058.48,301.499 1061.97,305.579C1065.47,309.659 1073.63,325.98 1073.63,331.809C1073.63,337.638 1064.89,353.376 1070.72,355.125C1076.55,356.874 1074.8,379.607 1073.63,381.355C1072.47,383.104 1057.31,411.666 1057.31,411.666C1057.31,411.666 1054.4,379.024 1025.83,392.43C1025.83,392.43 1023.5,376.109 1025.83,374.944C1028.16,373.778 1033.99,366.783 1029.33,365.617C1024.67,364.451 1018.26,350.462 1019.42,348.713C1020.59,346.965 1023.5,344.633 1020.59,342.884C1017.67,341.135 1015.34,331.226 1015.93,329.478C1016.51,327.729 1009.51,319.568 1009.51,319.568L1039.82,227.854Z" style="fill:rgb(87,117,165);fill-rule:nonzero;"/>
                    </g>
                </g>
            </g>
        </g>
    </g>
</svg>
