<?xml version="1.0" encoding="UTF-8" standalone="no"?>
<!DOCTYPE svg PUBLIC "-//W3C//DTD SVG 1.1//EN" "http://www.w3.org/Graphics/SVG/1.1/DTD/svg11.dtd">
<svg width="100%" height="100%" viewBox="0 0 412 230" version="1.1" xmlns="http://www.w3.org/2000/svg" xmlns:xlink="http://www.w3.org/1999/xlink" xml:space="preserve" xmlns:serif="http://www.serif.com/" style="fill-rule:evenodd;clip-rule:evenodd;stroke-linejoin:round;stroke-miterlimit:1.41421;">
    <g transform="matrix(1,0,0,1,-434.043,-556.79)">
        <g id="undraw_working_remotely_jh40" transform="matrix(0.360065,0,0,0.360065,640,671.471)">
            <g transform="matrix(1,0,0,1,-572,-318.5)">
                <clipPath id="_clip1">
                    <rect x="0" y="0" width="1144" height="637"/>
                </clipPath>
                <g clip-path="url(#_clip1)">
                    <g transform="matrix(1,0,0,1,-28,-131.5)">
                        <path d="M1172,547.81C1172.06,580.903 1163.02,613.384 1145.88,641.69C1145.88,676.31 1129.74,707.69 1103.56,730.56C1097.01,736.276 1089.95,741.39 1082.48,745.84C1082.18,746.03 1081.87,746.21 1081.56,746.39C1081,746.72 1080.44,747.05 1079.87,747.39L1079.34,747.7C1076.95,749.05 1074.51,750.35 1072.02,751.57C1049.08,762.852 1023.83,768.671 998.26,768.57L245.17,768.57C239.17,768.57 233.223,768.33 227.33,767.85C206.387,766.2 185.806,761.435 166.27,753.71C162.457,752.203 158.717,750.583 155.05,748.85C153.303,748.03 151.573,747.187 149.86,746.32C148.79,745.78 147.72,745.22 146.66,744.66C140.228,741.24 133.998,737.454 128,733.32C122.518,729.568 117.244,725.522 112.2,721.2C78.17,692 57.12,651.59 57.12,607C38.048,577.632 27.928,543.338 28,508.32C28,409.18 107.24,328.81 205,328.81C208,328.81 211,328.9 214,329.06C214.43,329.06 214.85,329.06 215.28,329.12C231.76,301.03 253.79,275.22 280.28,252.5C352.52,190.6 458.1,151.58 575.71,151.58C674.53,151.58 764.86,179.13 834.05,224.65C860.267,209.83 889.884,202.059 920,202.1C1017.74,202.1 1097,282.47 1097,381.61C1096.99,387.883 1096.65,394.151 1096,400.39C1143.77,434.207 1172.16,489.281 1172,547.81Z" style="fill:rgb(87,117,165);fill-opacity:0.1;fill-rule:nonzero;"/>
                    </g>
                    <g transform="matrix(1,0,0,1,-28,-131.5)">
                        <path d="M938.69,405.47L938.69,394.74C953.386,388.773 963.05,374.42 963.05,358.558C963.05,337.136 945.422,319.508 924,319.508C902.578,319.508 884.95,337.136 884.95,358.558C884.95,374.42 894.614,388.773 909.31,394.74L909.31,405.47C899.527,408.189 890.686,413.566 883.77,421C876.447,410.013 865.412,402.017 852.69,398.48L852.69,387.74C867.386,381.773 877.05,367.42 877.05,351.558C877.05,330.136 859.422,312.508 838,312.508C816.578,312.508 798.95,330.136 798.95,351.558C798.95,367.42 808.614,381.773 823.31,387.74L823.31,398.47C814.611,400.885 806.639,405.405 800.1,411.63C792.804,401.837 782.455,394.743 770.69,391.47L770.69,380.74C785.386,374.773 795.05,360.42 795.05,344.558C795.05,323.136 777.422,305.508 756,305.508C734.578,305.508 716.95,323.136 716.95,344.558C716.95,360.42 726.614,374.773 741.31,380.74L741.31,391.47C731.301,394.259 722.285,399.829 715.31,407.53C709.011,391.379 695.443,379.113 678.74,374.47L678.74,363.74C693.436,357.773 703.1,343.42 703.1,327.558C703.1,306.136 685.472,288.508 664.05,288.508C642.628,288.508 625,306.136 625,327.558C625,343.42 634.664,357.773 649.36,363.74L649.36,374.47C627.472,380.564 611.514,399.622 609.36,422.24C604.313,418.737 598.711,416.11 592.79,414.47L592.79,403.74C607.486,397.773 617.15,383.42 617.15,367.558C617.15,346.136 599.522,328.508 578.1,328.508C556.678,328.508 539.05,346.136 539.05,367.558C539.05,383.42 548.714,397.773 563.41,403.74L563.41,414.47C548.311,418.675 535.697,429.12 528.75,443.17C524.117,440.193 519.059,437.934 513.75,436.47L513.75,425.74C528.446,419.773 538.11,405.42 538.11,389.558C538.11,368.136 520.482,350.508 499.06,350.508C477.638,350.508 460.01,368.136 460.01,389.558C460.01,405.42 469.674,419.773 484.37,425.74L484.37,436.47C479.36,437.852 474.574,439.947 470.16,442.69C463.167,428.874 450.668,418.623 435.75,414.47L435.75,403.74C450.446,397.773 460.11,383.42 460.11,367.558C460.11,346.136 442.482,328.508 421.06,328.508C399.638,328.508 382.01,346.136 382.01,367.558C382.01,383.42 391.674,397.773 406.37,403.74L406.37,414.47C390.289,418.943 377.081,430.49 370.5,445.83C364.908,441.537 358.542,438.359 351.75,436.47L351.75,425.74C366.446,419.773 376.11,405.42 376.11,389.558C376.11,368.136 358.482,350.508 337.06,350.508C315.638,350.508 298.01,368.136 298.01,389.558C298.01,405.42 307.674,419.773 322.37,425.74L322.37,436.47C298.623,443.052 282.061,464.828 282.06,489.47L282.06,737.47L392,737.47L392,715.47L444,715.47L444,737.47L554,737.47L554,715.47L633,715.47L633,675.47L701,675.47L701,692.47L783,692.47L783,699.47L869,699.47L869,706.47L979,706.47L979,458.47C978.999,433.828 962.437,412.052 938.69,405.47Z" style="fill:rgb(87,117,165);fill-opacity:0.1;fill-rule:nonzero;"/>
                    </g>
                    <path d="M490.78,169L582.21,169C582.213,169 582.217,169 582.22,169C675.633,169 752.5,245.867 752.5,339.28L752.5,570L320.5,570L320.5,339.28C320.5,245.867 397.367,169 490.78,169Z" style="fill:rgb(47,46,65);fill-rule:nonzero;"/>
                    <path d="M500.78,178.28L572.21,178.28C572.213,178.28 572.217,178.28 572.22,178.28C665.633,178.28 742.5,255.147 742.5,348.56L742.5,560.71L330.5,560.71L330.5,348.56C330.5,255.147 407.367,178.28 500.78,178.28Z" style="fill-opacity:0.2;fill-rule:nonzero;"/>
                    <g transform="matrix(1,0,0,1,-28,-131.5)">
                        <path d="M1072,734.09L1072,751.55C1049.06,762.832 1023.81,768.651 998.24,768.55L245.17,768.55C239.17,768.55 233.223,768.31 227.33,767.83C206.387,766.18 185.806,761.415 166.27,753.69C162.457,752.183 158.717,750.563 155.05,748.83C153.303,748.01 151.573,747.167 149.86,746.3C148.79,745.76 147.72,745.2 146.66,744.64C140.229,741.226 133.999,737.447 128,733.32L128,685.9C128,670.046 141.046,657 156.9,657L988.13,657C995.12,657.013 1001.87,659.561 1007.13,664.17L1062.13,712.37C1068.39,717.846 1072,725.77 1072,734.09Z" style="fill:rgb(21,21,21);fill-rule:nonzero;"/>
                    </g>
                    <g transform="matrix(1,0,0,1,-28,-131.5)">
                        <path d="M510.67,357.31C488.863,358.75 467.14,361.083 445.5,364.31C439.35,365.23 433.11,366.25 427.5,368.97C423.141,371.253 419.122,374.134 415.56,377.53C399.497,391.921 386.562,409.462 377.56,429.06C371.99,441.21 367.99,454.06 362.74,466.31C344.05,510.06 310.15,545.84 290.42,589.13C286.15,598.5 282.55,608.28 281.12,618.47C279.64,629.01 281.32,641.31 289.98,647.47C293.98,650.3 298.84,651.47 303.6,652.47C363.521,665.74 424.14,675.639 485.17,682.12C478.56,675.74 476.35,665.85 477.22,656.71C478.09,647.57 481.68,638.93 485.22,630.46C450.68,622.84 416.227,614.84 381.86,606.46C376.73,605.21 370.57,602.86 369.94,597.62C369.62,594.95 370.94,592.38 372.24,590.03C386.897,563.489 404.473,538.669 424.64,516.03C424.64,544.09 423.25,575.78 423.25,603.85L747.35,603.85C743.452,587.834 741.161,571.47 740.51,555C739,501.24 757.1,447.89 752.4,394.24C751.96,389.29 751.28,384.19 748.69,379.95C744.22,372.63 735.3,369.6 727.1,367.1C695.66,357.54 663.56,347.87 630.7,348.62C620.93,348.85 611.2,349.99 601.49,351.14C571.9,354.63 540.4,355.34 510.67,357.31Z" style="fill:rgb(87,117,165);fill-rule:nonzero;"/>
                    </g>
                    <g transform="matrix(1,0,0,1,-28,-131.5)">
                        <path d="M358.88,679.82L382.48,755.35C382.789,756.329 383.703,757 384.73,757L486,757L462,669L360.94,676.77C359.723,676.871 358.774,677.901 358.774,679.122C358.774,679.359 358.81,679.594 358.88,679.82Z" style="fill:rgb(101,100,120);fill-rule:nonzero;"/>
                    </g>
                    <g transform="matrix(1,0,0,1,-28,-131.5)">
                        <path d="M532,389.79C527.6,392.32 522.47,393.23 517.47,394.1L485.2,399.7C478.92,400.79 472.31,402.03 467.47,406.18C457.57,414.65 459.71,430.24 462.71,442.92L468.71,468.36C473.23,487.48 477.85,506.83 487.12,524.15C503.31,554.38 533.01,576.15 565.67,586.64C577.34,590.39 589.67,592.83 601.85,591.49C625.71,588.87 646.12,571.86 658.7,551.41C671.28,530.96 677.27,507.24 682.76,483.86C688.03,461.48 693.04,438.78 692.7,415.78C692.6,408.62 691.88,401.14 688.06,395.07C679.69,381.74 660.72,380.74 645.17,383.2C642.75,383.59 640.24,384.01 637.91,383.28C630.91,381.1 630.75,371.49 627.75,364.82C622.08,352.24 605.26,350.01 591.51,351.15C577.76,352.29 556.35,353.76 544.37,361.55C532.85,369 545.51,382 532,389.79Z" style="fill:rgb(251,190,190);fill-rule:nonzero;"/>
                    </g>
                    <g transform="matrix(1,0,0,1,-28,-131.5)">
                        <path d="M532,389.79C527.6,392.32 522.47,393.23 517.47,394.1L485.2,399.7C478.92,400.79 472.31,402.03 467.47,406.18C457.57,414.65 459.71,430.24 462.71,442.92L468.71,468.36C473.23,487.48 477.85,506.83 487.12,524.15C503.31,554.38 533.01,576.15 565.67,586.64C577.34,590.39 589.67,592.83 601.85,591.49C625.71,588.87 646.12,571.86 658.7,551.41C671.28,530.96 677.27,507.24 682.76,483.86C688.03,461.48 693.04,438.78 692.7,415.78C692.6,408.62 691.88,401.14 688.06,395.07C679.69,381.74 660.72,380.74 645.17,383.2C642.75,383.59 640.24,384.01 637.91,383.28C630.91,381.1 630.75,371.49 627.75,364.82C622.08,352.24 605.26,350.01 591.51,351.15C577.76,352.29 556.35,353.76 544.37,361.55C532.85,369 545.51,382 532,389.79Z" style="fill-opacity:0.1;fill-rule:nonzero;"/>
                    </g>
                    <g transform="matrix(1,0,0,1,-28,-131.5)">
                        <path d="M505.29,418.45C510.17,428.69 513.83,439.55 519.73,449.24C524.42,456.94 530.43,463.73 536.41,470.48C551.9,488 567.59,505.66 586.76,519C594.698,478.221 613.879,440.461 642.13,410C650.39,401.13 660.73,392.39 672.85,392.72C680.37,392.93 687.31,396.66 693.57,400.81C700.57,405.44 707.19,410.81 712.22,417.48C720.17,428.1 723.6,441.55 724.22,454.8C724.84,468.05 722.78,481.27 720.74,494.37L710.24,562.08C709.63,566 708.78,570.33 705.58,572.68C703.763,573.831 701.714,574.569 699.58,574.84C661.41,582.27 622.07,577.45 583.18,577.07C540.18,576.66 495.99,581.56 455.26,567.88C453.13,567.16 450.92,566.33 449.48,564.62C448.534,563.33 447.854,561.865 447.48,560.31C437.99,529.59 445.6,496.58 451.23,464.93C455.688,439.848 458.862,414.555 460.74,389.15C460.91,386.86 486.07,391.92 488.88,393.54C496.53,398.07 501.61,410.73 505.29,418.45Z" style="fill:rgb(87,117,165);fill-rule:nonzero;"/>
                    </g>
                    <g opacity="0.2">
                        <g transform="matrix(1,0,0,1,-28,-131.5)">
                            <path d="M194.87,668.29C194.87,668.75 194.82,669.2 194.77,669.64C190.957,668.133 187.217,666.513 183.55,664.78C181.592,664.522 179.769,663.634 178.36,662.25C177.29,661.71 176.22,661.15 175.16,660.59C175.4,660.087 175.671,659.6 175.97,659.13C178.03,655.87 181.16,653.83 184.61,653.94C188.06,654.05 191.05,656.28 192.9,659.65C194.315,662.303 194.995,665.286 194.87,668.29Z" style="fill:rgb(63,61,86);fill-rule:nonzero;"/>
                        </g>
                        <g transform="matrix(1,0,0,1,-28,-131.5)">
                            <path d="M195.41,651.17C195.342,654.169 194.475,657.097 192.9,659.65C190.84,662.9 187.71,664.94 184.26,664.83L183.55,664.78C181.592,664.522 179.769,663.634 178.36,662.25C177.404,661.342 176.598,660.289 175.97,659.13C173.167,653.723 173.372,647.23 176.51,642.01C178.57,638.75 181.7,636.71 185.15,636.82C188.6,636.93 191.59,639.16 193.44,642.53C194.855,645.183 195.535,648.166 195.41,651.17Z" style="fill:rgb(63,61,86);fill-rule:nonzero;"/>
                        </g>
                        <g transform="matrix(0.0315852,-0.999501,0.999501,0.0315852,-481.98,667.38)">
                            <ellipse cx="185.25" cy="633.7" rx="14.01" ry="10.7" style="fill:rgb(63,61,86);"/>
                        </g>
                        <g transform="matrix(0.0315852,-0.999501,0.999501,0.0315852,-464.35,651.34)">
                            <ellipse cx="185.79" cy="616.59" rx="14.01" ry="10.7" style="fill:rgb(63,61,86);"/>
                        </g>
                        <g transform="matrix(0.0315852,-0.999501,0.999501,0.0315852,-446.72,635.3)">
                            <ellipse cx="186.33" cy="599.47" rx="14.01" ry="10.7" style="fill:rgb(63,61,86);"/>
                        </g>
                        <g transform="matrix(1,0,0,1,-28,-131.5)">
                            <path d="M150,481.05C148.592,479.143 147.322,477.138 146.2,475.05L174.46,471.32L144,470.6C138.516,457.592 138.628,442.883 144.31,429.96L184.43,452.4L147.68,423.56C157.014,408.463 173.547,399.247 191.297,399.247C219.428,399.247 242.577,422.396 242.577,450.527C242.577,462.612 238.305,474.316 230.52,483.56C232.708,486.527 234.569,489.722 236.07,493.09L199,510.93L238.33,499.1C243.359,515.68 239.667,533.727 228.53,547C235.027,555.813 238.533,566.479 238.533,577.428C238.533,605.559 215.384,628.708 187.253,628.708C159.122,628.708 135.973,605.559 135.973,577.428C135.973,565.359 140.234,553.668 148,544.43C134.006,525.438 134.837,499.122 150,481.05Z" style="fill:rgb(87,117,165);fill-rule:nonzero;"/>
                        </g>
                        <g transform="matrix(1,0,0,1,-28,-131.5)">
                            <path d="M240.5,515.62C240.148,527.121 235.917,538.173 228.5,546.97C235.013,555.789 238.529,566.469 238.529,577.433C238.529,605.564 215.38,628.713 187.249,628.713C159.117,628.713 135.969,605.564 135.969,577.433C135.969,565.361 140.231,553.669 148,544.43C141.37,535.49 240.68,509.87 240.5,515.62Z" style="fill-opacity:0.1;fill-rule:nonzero;"/>
                        </g>
                    </g>
                    <circle cx="68.02" cy="141.18" r="21.63" style="fill:rgb(87,117,165);fill-opacity:0.1;"/>
                    <circle cx="158.17" cy="21.63" r="21.63" style="fill:rgb(87,117,165);fill-opacity:0.1;"/>
                    <circle cx="150.84" cy="103.76" r="36.25" style="fill:rgb(87,117,165);fill-opacity:0.1;"/>
                    <circle cx="543" cy="185.5" r="84" style="fill:rgb(251,190,190);"/>
                    <g transform="matrix(1,0,0,1,-28,-131.5)">
                        <path d="M536.88,152.17C514.47,155.01 490.28,158.76 474.44,174.86C465.58,183.86 460.39,195.86 456.12,207.74C449.5,226.24 444.57,245.74 446.12,265.37C447.5,282.93 454,300.89 448.74,317.71C446.32,325.45 441.57,332.21 437.88,339.42C431.04,352.81 427.82,367.82 426.64,382.81C425.82,393.12 425.98,403.73 429.37,413.5C432.98,423.9 440.02,432.75 444.48,442.81C451.08,457.67 451.74,474.39 452.25,490.64C452.76,506.89 453.19,523.03 453.57,539.22C453.81,549.4 453.83,560.3 448.2,568.79C468.99,560.46 490.07,551.96 507.86,538.36C525.65,524.76 540.05,505.15 542.35,482.87C544.21,464.81 538.11,447.01 532.85,429.63C519.85,386.63 511.45,340.79 520.91,296.88C524.32,281.07 532.61,263.42 548.52,260.51C558.23,258.74 567.92,263.17 576.67,267.75C597.35,278.57 618.67,292.57 626.37,314.6C633.37,334.52 627.48,356.71 618.37,375.73C609.26,394.75 596.86,412.24 589.78,432.12C578.91,462.62 581.97,498.33 600.03,525.2C618.09,552.07 651.46,568.6 683.55,564.26C681.04,553.42 673.17,544.66 668.95,534.36C661.28,515.65 666.45,494.13 674.7,475.67C682.95,457.21 694.21,440 699.37,420.4C703.01,406.6 703.45,392.18 703.43,377.91C703.43,355.45 702.32,332.98 700.16,310.62C698,288.26 694.7,265.62 687.58,244.11C681.86,226.86 673.53,210.18 661.07,196.95C647.81,182.86 630.55,173.31 613.6,163.95C603.46,158.37 593.1,152.72 581.72,150.63C572.72,148.98 563.26,146.63 554.08,146.48C547.84,146.39 541.28,147.74 536.88,152.17Z" style="fill:rgb(29,29,40);fill-rule:nonzero;"/>
                    </g>
                    <g transform="matrix(0.981694,0.190466,-0.190466,0.981694,45.9,-250.24)">
                        <path d="M684.86,256.99C684.86,255.389 683.561,254.09 681.96,254.09L626.91,254.09C625.309,254.09 624.01,255.389 624.01,256.99L624.01,392.93C624.01,394.531 625.309,395.83 626.91,395.83L681.96,395.83C683.561,395.83 684.86,394.531 684.86,392.93L684.86,256.99Z" style="fill:rgb(101,100,120);"/>
                    </g>
                    <g transform="matrix(0.981694,0.190466,-0.190466,0.981694,46.13,-251)">
                        <path d="M688.94,257.78C688.94,256.179 687.641,254.88 686.04,254.88L630.99,254.88C629.389,254.88 628.09,256.179 628.09,257.78L628.09,393.72C628.09,395.321 629.389,396.62 630.99,396.62L686.04,396.62C687.641,396.62 688.94,395.321 688.94,393.72L688.94,257.78Z" style="fill:rgb(63,61,86);"/>
                    </g>
                    <g transform="matrix(0.190466,-0.981694,0.981694,0.190466,230.2,754.21)">
                        <ellipse cx="666.17" cy="286.29" rx="10.05" ry="4.15" style="fill:rgb(87,117,165);"/>
                    </g>
                    <g transform="matrix(1,0,0,1,-28,-131.5)">
                        <path d="M683,332.5C680.36,327.83 677.54,323 673.09,320.01C670.532,318.441 667.783,317.208 664.91,316.34C655.22,312.95 645.37,309.53 635.12,308.99C633.45,308.91 631.54,308.99 630.45,310.27C628.21,312.9 631.76,316.48 634.83,318.07L659.25,330.72L636.74,328.34C633.47,327.99 628.81,328.88 629.05,332.16C629.21,334.31 631.57,335.48 633.61,336.16C648.06,341.16 664.76,345.08 672.67,358.16C662.13,357.16 651.36,356.16 641.03,358.48C638.2,359.12 635.27,360.11 633.42,362.34C631.57,364.57 631.36,368.34 633.69,370.11C635.13,371.18 637.07,371.21 638.87,371.11C646.2,370.76 653.72,369.3 660.76,371.39C667.8,373.48 674.05,380.86 671.62,387.78C677.86,388.34 685.24,387.78 691.01,385.09C697.37,382.09 697.22,376.45 696.83,369.65C696,356.33 689.39,343.9 683,332.5Z" style="fill:rgb(251,190,190);fill-rule:nonzero;"/>
                    </g>
                    <g transform="matrix(1,0,0,1,-28,-131.5)">
                        <path d="M676.69,550.49C671.094,511.138 663.416,472.11 653.69,433.57C648.69,413.57 643.01,393.23 644.44,372.65C665.1,375.28 683.61,377.23 702.65,368.79C702.96,379.6 710.8,388.79 713.65,399.24C715.56,406.24 714.84,413.65 715.59,420.86C716.34,428.07 718.59,435.06 720.52,442.07C730.096,476.806 732.354,513.156 727.15,548.81C709.48,550.91 694.32,553.22 676.69,550.49Z" style="fill-opacity:0.1;fill-rule:nonzero;"/>
                    </g>
                    <g transform="matrix(1,0,0,1,-28,-131.5)">
                        <path d="M673.69,550.49C668.094,511.138 660.416,472.11 650.69,433.57C645.69,413.57 640.01,393.23 641.44,372.65C662.1,375.28 680.61,377.23 699.65,368.79C699.96,379.6 707.8,388.79 710.65,399.24C712.56,406.24 711.84,413.65 712.59,420.86C713.34,428.07 715.59,435.06 717.52,442.07C727.096,476.806 729.354,513.156 724.15,548.81C706.48,550.91 691.32,553.22 673.69,550.49Z" style="fill:rgb(87,117,165);fill-rule:nonzero;"/>
                    </g>
                    <g transform="matrix(1,0,0,1,-28,-131.5)">
                        <path d="M384.63,745.27L394.42,502.4C394.742,494.423 401.437,488.058 409.42,488.14L795.94,491.84C804.034,491.923 810.647,498.605 810.647,506.699C810.647,507.133 810.628,507.567 810.59,508L790.17,740.67C789.509,748.21 783.188,754.101 775.62,754.23L399.74,760.73C399.656,760.731 399.572,760.732 399.488,760.732C391.331,760.732 384.618,754.02 384.618,745.862C384.618,745.665 384.622,745.467 384.63,745.27Z" style="fill:rgb(1,0,16);fill-rule:nonzero;"/>
                    </g>
                    <ellipse cx="572.5" cy="467" rx="17" ry="20" style="fill:rgb(87,117,165);"/>
                    <g transform="matrix(1,0,0,1,-28,-131.5)">
                        <path d="M964,584.76L963.2,591.62L950.2,702.48C916.31,726.11 889.95,703.4 889.72,702.48L873.34,591.1L872.41,584.76L964,584.76Z" style="fill:rgb(63,61,86);fill-rule:nonzero;"/>
                    </g>
                    <g transform="matrix(1,0,0,1,-28,-131.5)">
                        <path d="M964,584.76L963.2,591.62C925.02,613.82 884.29,596.54 873.34,591.1L872.41,584.76L964,584.76Z" style="fill-opacity:0.1;fill-rule:nonzero;"/>
                    </g>
                    <g transform="matrix(1,0,0,1,-28,-131.5)">
                        <path d="M870.5,578.74L870.5,588.74C870.5,588.74 921,618.1 966.5,588.74L966.5,578.74L870.5,578.74Z" style="fill:rgb(87,117,165);fill-rule:nonzero;"/>
                    </g>
                    <g transform="matrix(1,0,0,1,-28,-131.5)">
                        <path d="M876.37,565.53C876.37,565.53 874.9,572.28 870.5,572.87L870.5,581.38L966.5,581.38L966.5,573.75C966.5,573.75 960.63,572.28 961.5,565.53L876.37,565.53Z" style="fill:rgb(87,117,165);fill-rule:nonzero;"/>
                    </g>
                    <ellipse cx="890.21" cy="434.76" rx="43.3" ry="12.48" style="fill:rgb(87,117,165);"/>
                    <ellipse cx="890.21" cy="434.76" rx="43.3" ry="12.48" style="fill-opacity:0.1;"/>
                    <g transform="matrix(1,0,0,1,-28,-131.5)">
                        <path d="M956.22,565.53C956.22,570.53 939.8,574.63 919.53,574.63L918.45,574.63C904.84,574.53 893.08,572.63 887.08,569.79C884.37,568.51 882.83,567.06 882.83,565.53C882.83,562.99 887.03,560.69 893.83,559.04C902.279,557.192 910.912,556.317 919.56,556.43C939.8,556.43 956.22,560.5 956.22,565.53Z" style="fill-opacity:0.1;fill-rule:nonzero;"/>
                    </g>
                    <g transform="matrix(1,0,0,1,-28,-131.5)">
                        <path d="M918.45,574.63C904.84,574.53 893.08,572.63 887.08,569.79L893.8,559L918.45,574.63Z" style="fill-opacity:0.1;fill-rule:nonzero;"/>
                    </g>
                    <g transform="matrix(1,0,0,1,-28,-131.5)">
                        <path d="M880.1,566.23C879.58,566.12 878.89,566.3 878.79,566.82C878.777,567.085 878.847,567.347 878.99,567.57C880.136,569.383 881.802,570.808 883.77,571.66C884.106,571.849 884.477,571.968 884.86,572.01C885.268,572.059 885.666,571.852 885.86,571.49C885.972,571.185 885.946,570.845 885.79,570.56C885.484,570.019 885.06,569.554 884.55,569.2C883.21,568.15 881.84,566.52 880.1,566.23Z" style="fill-opacity:0.1;fill-rule:nonzero;"/>
                    </g>
                    <circle cx="891.67" cy="515.79" r="25.83" style="fill:rgb(87,117,165);"/>
                    <path d="M188.33,515.85L200.44,515.85C214.155,515.85 225.44,527.135 225.44,540.85L225.44,578L163.33,578L163.33,540.85C163.33,527.135 174.615,515.85 188.33,515.85Z" style="fill:rgb(63,61,86);fill-rule:nonzero;"/>
                    <path d="M188.33,515.85L200.44,515.85C214.155,515.85 225.44,527.135 225.44,540.85L225.44,578L163.33,578L163.33,540.85C163.33,527.135 174.615,515.85 188.33,515.85Z" style="fill-opacity:0.1;fill-rule:nonzero;"/>
                    <circle cx="191.9" cy="524.55" r="4.97" style="fill:rgb(63,61,86);"/>
                    <circle cx="191.9" cy="518.34" r="4.97" style="fill:rgb(63,61,86);"/>
                    <circle cx="191.9" cy="512.12" r="4.97" style="fill:rgb(63,61,86);"/>
                    <circle cx="191.9" cy="505.91" r="4.97" style="fill:rgb(63,61,86);"/>
                    <circle cx="191.9" cy="499.7" r="4.97" style="fill:rgb(63,61,86);"/>
                    <circle cx="191.9" cy="493.49" r="4.97" style="fill:rgb(63,61,86);"/>
                    <circle cx="191.9" cy="487.28" r="4.97" style="fill:rgb(63,61,86);"/>
                    <circle cx="199.36" cy="489.76" r="4.97" style="fill:rgb(63,61,86);"/>
                    <circle cx="204.33" cy="487.28" r="4.97" style="fill:rgb(63,61,86);"/>
                    <circle cx="209.3" cy="484.79" r="4.97" style="fill:rgb(63,61,86);"/>
                    <circle cx="191.9" cy="481.07" r="4.97" style="fill:rgb(63,61,86);"/>
                    <circle cx="191.9" cy="474.86" r="4.97" style="fill:rgb(63,61,86);"/>
                    <circle cx="191.9" cy="468.64" r="4.97" style="fill:rgb(63,61,86);"/>
                    <circle cx="191.9" cy="462.43" r="4.97" style="fill:rgb(63,61,86);"/>
                    <g transform="matrix(1,0,0,1,-28,-131.5)">
                        <path d="M240.5,577.91C239.27,578.09 238.03,578.22 236.79,578.3C237.947,577.288 239.021,576.185 240,575C239.308,572.913 238.296,570.946 237,569.17C235.768,569.862 234.406,570.291 233,570.43C231.77,570.61 230.53,570.74 229.29,570.83C230.92,569.5 232.44,567.5 234.04,565.83C230.161,562.313 225.109,560.364 219.874,560.364C208.304,560.364 198.784,569.884 198.784,581.454C198.784,593.023 208.304,602.544 219.874,602.544C231.443,602.544 240.964,593.023 240.964,581.454C240.964,580.239 240.859,579.027 240.65,577.83L240.5,577.91Z" style="fill:rgb(87,117,165);fill-rule:nonzero;"/>
                    </g>
                    <g transform="matrix(1,0,0,1,-28,-131.5)">
                        <path d="M257.11,602.6C255.842,603.378 254.412,603.854 252.93,603.99C251.7,604.17 250.46,604.31 249.22,604.39C250.538,603.208 251.768,601.931 252.9,600.57C251.875,600.303 250.821,600.168 249.761,600.168C242.937,600.168 237.321,605.783 237.321,612.608C237.321,619.432 242.937,625.048 249.761,625.048C256.586,625.048 262.201,619.432 262.201,612.608C262.201,608.645 260.308,604.911 257.11,602.57L257.11,602.6Z" style="fill:rgb(87,117,165);fill-rule:nonzero;"/>
                    </g>
                    <circle cx="184.45" cy="489.76" r="4.97" style="fill:rgb(63,61,86);"/>
                    <circle cx="179.48" cy="487.28" r="4.97" style="fill:rgb(63,61,86);"/>
                    <circle cx="174.51" cy="484.79" r="4.97" style="fill:rgb(63,61,86);"/>
                    <g transform="matrix(1,0,0,1,-28,-131.5)">
                        <path d="M182.7,602.6C183.967,603.38 185.398,603.855 186.88,603.99C188.11,604.17 189.35,604.31 190.59,604.39C189.27,603.21 188.039,601.934 186.91,600.57C187.935,600.303 188.989,600.168 190.049,600.168C196.873,600.168 202.489,605.783 202.489,612.608C202.489,619.432 196.873,625.048 190.049,625.048C183.224,625.048 177.609,619.432 177.609,612.608C177.609,608.645 179.502,604.911 182.7,602.57L182.7,602.6Z" style="fill:rgb(87,117,165);fill-rule:nonzero;"/>
                    </g>
                    <path d="M188.33,519.58L200.44,519.58C214.155,519.58 225.44,530.865 225.44,544.58L225.44,577.45C225.44,579.776 223.526,581.69 221.2,581.69L167.57,581.69C165.244,581.69 163.33,579.776 163.33,577.45L163.33,544.58C163.33,530.865 174.615,519.58 188.33,519.58Z" style="fill:rgb(63,61,86);fill-rule:nonzero;"/>
                    <g opacity="0.1">
                        <g transform="matrix(1,0,0,1,-28,-131.5)">
                            <path d="M240.88,579.27C240.377,579.808 239.843,580.315 239.28,580.79C239.85,580.79 240.41,580.7 240.98,580.64C241,580.18 240.93,579.72 240.88,579.27Z" style="fill-rule:nonzero;"/>
                        </g>
                        <g transform="matrix(1,0,0,1,-28,-131.5)">
                            <path d="M231.82,573.33C233.07,573.25 234.3,573.12 235.54,572.94C236.652,572.799 237.74,572.503 238.77,572.06C238.266,571.059 237.685,570.099 237.03,569.19C236.408,569.569 235.734,569.855 235.03,570.04C234.049,571.22 232.976,572.321 231.82,573.33Z" style="fill-rule:nonzero;"/>
                        </g>
                        <g transform="matrix(1,0,0,1,-28,-131.5)">
                            <path d="M201.27,584C201.27,583.986 201.27,583.972 201.27,583.959C201.27,572.394 210.786,562.879 222.35,562.879C226.4,562.879 230.366,564.046 233.77,566.24L234.09,565.9C230.228,562.464 225.234,560.564 220.064,560.564C208.489,560.564 198.964,570.088 198.964,581.664C198.964,587.791 201.633,593.624 206.27,597.63C203.037,593.827 201.263,588.992 201.27,584Z" style="fill-rule:nonzero;"/>
                        </g>
                    </g>
                    <g opacity="0.1">
                        <g transform="matrix(1,0,0,1,-28,-131.5)">
                            <path d="M249.22,606.87C250.46,606.79 251.7,606.66 252.93,606.48C254.412,606.34 255.843,605.861 257.11,605.08C259.948,607.17 261.767,610.372 262.11,613.88C262.159,613.445 262.182,613.008 262.18,612.57C262.199,608.634 260.34,604.916 257.18,602.57C255.912,603.348 254.482,603.824 253,603.96L252,604.09C251.147,605.087 250.217,606.017 249.22,606.87Z" style="fill-rule:nonzero;"/>
                        </g>
                        <g transform="matrix(1,0,0,1,-28,-131.5)">
                            <path d="M249.72,602.63C250.135,602.635 250.549,602.665 250.96,602.72C251.61,602.03 252.25,601.29 252.9,600.57C251.856,600.291 250.78,600.15 249.7,600.15C242.898,600.15 237.3,605.748 237.3,612.55C237.3,612.557 237.3,612.563 237.3,612.57C237.3,612.99 237.3,613.4 237.36,613.81C237.994,607.494 243.372,602.629 249.72,602.63Z" style="fill-rule:nonzero;"/>
                        </g>
                    </g>
                    <g opacity="0.1">
                        <g transform="matrix(1,0,0,1,-28,-131.5)">
                            <path d="M190.59,606.87C189.35,606.79 188.11,606.66 186.88,606.48C185.397,606.342 183.967,605.863 182.7,605.08C179.862,607.17 178.043,610.372 177.7,613.88C177.651,613.445 177.628,613.008 177.63,612.57C177.611,608.634 179.47,604.916 182.63,602.57C183.897,603.35 185.328,603.825 186.81,603.96L187.81,604.09C188.658,605.092 189.588,606.022 190.59,606.87Z" style="fill-rule:nonzero;"/>
                        </g>
                        <g transform="matrix(1,0,0,1,-28,-131.5)">
                            <path d="M190.09,602.63C189.672,602.635 189.254,602.665 188.84,602.72C188.2,602.03 187.56,601.29 186.91,600.57C187.954,600.291 189.03,600.15 190.11,600.15C196.912,600.15 202.51,605.748 202.51,612.55C202.51,612.557 202.51,612.563 202.51,612.57C202.51,612.99 202.51,613.4 202.45,613.81C201.816,607.494 196.438,602.629 190.09,602.63Z" style="fill-rule:nonzero;"/>
                        </g>
                    </g>
                </g>
            </g>
        </g>
    </g>
</svg>
