<?xml version="1.0" encoding="UTF-8" standalone="no"?>
<!DOCTYPE svg PUBLIC "-//W3C//DTD SVG 1.1//EN" "http://www.w3.org/Graphics/SVG/1.1/DTD/svg11.dtd">
<svg width="100%" height="100%" viewBox="0 0 172 101" version="1.1" xmlns="http://www.w3.org/2000/svg" xmlns:xlink="http://www.w3.org/1999/xlink" xml:space="preserve" xmlns:serif="http://www.serif.com/" style="fill-rule:evenodd;clip-rule:evenodd;stroke-miterlimit:10;">
    <g transform="matrix(1,0,0,1,-911.502,-2831.35)">
        <g id="undraw_videographer_nnc7" transform="matrix(0.148799,0,0,0.148799,997.094,2881.61)">
            <g transform="matrix(1,0,0,1,-575.22,-337.78)">
                <clipPath id="_clip1">
                    <rect x="0" y="0" width="1150.44" height="675.56"/>
                </clipPath>
                <g clip-path="url(#_clip1)">
                    <g transform="matrix(1,0,0,1,-24.78,-112.22)">
                        <path d="M1144.41,739.72C1143.33,740.51 1142.22,741.27 1141.1,742.02C1136.97,744.79 1132.65,747.279 1128.19,749.47C1104.73,761.17 1075.83,766.88 1047.67,770.76C984.52,779.48 920.04,781.17 855.83,782.83C682.36,787.34 508.43,791.83 335.4,781.45C267.04,777.35 197.15,770.45 135.19,749.45C126.317,746.443 117.61,743.13 109.07,739.51C91.81,732.16 75.23,723.23 61.44,712.59C48.44,702.59 37.98,691.09 31.7,678.03C18.6,650.81 25.53,620.24 40.48,593.57C46.729,582.747 53.747,572.387 61.48,562.57C73,547.55 85.71,533 97.33,518C138.65,464.58 165.61,397.11 127.47,342.39C116.47,326.67 100.66,312.87 91.73,296.46C80.32,275.46 81.21,252.15 84.84,229.46C85.3,226.6 85.84,223.76 86.33,220.92C92.56,187.35 104.16,151.17 140.07,130.21C177.37,108.43 230.32,109.53 276.63,117.32C348.63,129.44 415.05,154.75 482.12,177.61C549.19,200.47 619.44,221.35 693.2,223.61C758.32,225.61 834.29,210.74 877.51,172.15C919.51,134.67 998.41,131.82 1055.31,154.46C1094.31,170 1123.46,197.99 1135.75,229.46C1138.23,235.761 1140.03,242.313 1141.1,249C1142.1,255.089 1142.43,261.269 1142.1,267.43C1141.93,270.43 1141.6,273.48 1141.1,276.43C1131.6,338.56 1063.19,387.56 1021.61,443.06C1001.29,470.17 986.94,502.73 1000.91,531.96C1022.22,576.5 1096.33,592.33 1141.1,625.49C1149.46,631.457 1156.88,638.652 1163.1,646.83C1184.75,676.35 1176.74,716.19 1144.41,739.72Z" style="fill-opacity:0.1;fill-rule:nonzero;"/>
                    </g>
                    <ellipse cx="537.69" cy="650.7" rx="269.64" ry="9.16" style="fill-opacity:0.1;"/>
                    <g id="_55bfdb31-36b5-4718-97dd-773b4157bdc7" serif:id="55bfdb31-36b5-4718-97dd-773b4157bdc7">
                        <g transform="matrix(1,0,0,1,-24.78,-112.22)">
                            <path d="M776.7,756.82C776.7,756.82 834.7,683.35 830.21,610.32C828.32,579.66 835.87,549.14 852.74,523.47C860.765,511.309 869.89,499.911 880,489.42" style="fill:none;fill-rule:nonzero;stroke:rgb(83,84,97);stroke-width:2px;"/>
                        </g>
                        <g transform="matrix(1,0,0,1,-24.78,-112.22)">
                            <path d="M877.43,443.37C873.33,453.59 879.92,490.63 879.92,490.63C879.92,490.63 910.31,468.44 914.41,458.23C915.359,455.868 915.846,453.346 915.846,450.8C915.846,439.863 906.847,430.864 895.91,430.864C887.785,430.864 880.438,435.831 877.41,443.37L877.43,443.37Z" style="fill-rule:nonzero;"/>
                        </g>
                        <g transform="matrix(1,0,0,1,-24.78,-112.22)">
                            <path d="M824.14,487.66C826.25,498.46 851.92,525.97 851.92,525.97C851.92,525.97 865.37,490.83 863.26,480.03C861.348,470.815 853.157,464.149 843.746,464.149C832.812,464.149 823.816,473.146 823.816,484.079C823.816,485.28 823.924,486.479 824.14,487.66Z" style="fill-rule:nonzero;"/>
                        </g>
                        <g transform="matrix(1,0,0,1,-24.78,-112.22)">
                            <path d="M786.65,584.86C793.92,593.12 829.96,603.86 829.96,603.86C829.96,603.86 823.83,566.74 816.56,558.48C812.779,554.185 807.327,551.721 801.605,551.721C790.675,551.721 781.681,560.715 781.681,571.645C781.681,576.49 783.448,581.173 786.65,584.81L786.65,584.86Z" style="fill-rule:nonzero;"/>
                        </g>
                        <g transform="matrix(1,0,0,1,-24.78,-112.22)">
                            <path d="M774.83,664.79C780.6,674.16 814.31,690.89 814.31,690.89C814.31,690.89 814.54,653.26 808.77,643.89C805.163,637.934 798.686,634.285 791.723,634.285C780.79,634.285 771.793,643.282 771.793,654.215C771.793,657.955 772.846,661.62 774.83,664.79Z" style="fill-rule:nonzero;"/>
                        </g>
                        <g transform="matrix(1,0,0,1,-24.78,-112.22)">
                            <path d="M890,543.55C879.81,547.72 842.73,541.38 842.73,541.38C842.73,541.38 864.73,510.84 874.89,506.67C877.207,505.762 879.674,505.296 882.162,505.296C893.096,505.296 902.092,514.293 902.092,525.226C902.092,533.188 897.321,540.419 890,543.55Z" style="fill-rule:nonzero;"/>
                        </g>
                        <g transform="matrix(1,0,0,1,-24.78,-112.22)">
                            <path d="M875,636.85C864,637.79 830.54,620.64 830.54,620.64C830.54,620.64 860.65,598.08 871.61,597.14C872.283,597.071 872.96,597.037 873.637,597.037C884.57,597.037 893.567,606.033 893.567,616.967C893.567,627.386 885.395,636.137 875,636.85Z" style="fill-rule:nonzero;"/>
                        </g>
                        <g transform="matrix(1,0,0,1,-24.78,-112.22)">
                            <path d="M847.92,725.54C837.27,728.31 801.37,717.07 801.37,717.07C801.37,717.07 827.23,689.75 837.88,686.97C839.348,686.632 840.849,686.461 842.355,686.461C853.289,686.461 862.285,695.458 862.285,706.391C862.285,715.244 856.386,723.086 847.88,725.54L847.92,725.54Z" style="fill-rule:nonzero;"/>
                        </g>
                        <g transform="matrix(1,0,0,1,-24.78,-112.22)">
                            <path d="M877.43,443.37C873.33,453.59 879.92,490.63 879.92,490.63C879.92,490.63 910.31,468.44 914.41,458.23C915.359,455.868 915.846,453.346 915.846,450.8C915.846,439.863 906.847,430.864 895.91,430.864C887.785,430.864 880.438,435.831 877.41,443.37L877.43,443.37Z" style="fill-opacity:0.25;fill-rule:nonzero;"/>
                        </g>
                        <g transform="matrix(1,0,0,1,-24.78,-112.22)">
                            <path d="M824.14,487.66C826.25,498.46 851.92,525.97 851.92,525.97C851.92,525.97 865.37,490.83 863.26,480.03C861.348,470.815 853.157,464.149 843.746,464.149C832.812,464.149 823.816,473.146 823.816,484.079C823.816,485.28 823.924,486.479 824.14,487.66Z" style="fill-opacity:0.25;fill-rule:nonzero;"/>
                        </g>
                        <g transform="matrix(1,0,0,1,-24.78,-112.22)">
                            <path d="M786.65,584.86C793.92,593.12 829.96,603.86 829.96,603.86C829.96,603.86 823.83,566.74 816.56,558.48C812.779,554.185 807.327,551.721 801.605,551.721C790.675,551.721 781.681,560.715 781.681,571.645C781.681,576.49 783.448,581.173 786.65,584.81L786.65,584.86Z" style="fill-opacity:0.25;fill-rule:nonzero;"/>
                        </g>
                        <g transform="matrix(1,0,0,1,-24.78,-112.22)">
                            <path d="M774.83,664.79C780.6,674.16 814.31,690.89 814.31,690.89C814.31,690.89 814.54,653.26 808.77,643.89C805.163,637.934 798.686,634.285 791.723,634.285C780.79,634.285 771.793,643.282 771.793,654.215C771.793,657.955 772.846,661.62 774.83,664.79Z" style="fill-opacity:0.25;fill-rule:nonzero;"/>
                        </g>
                        <g transform="matrix(1,0,0,1,-24.78,-112.22)">
                            <path d="M890,543.55C879.81,547.72 842.73,541.38 842.73,541.38C842.73,541.38 864.73,510.84 874.89,506.67C877.207,505.762 879.674,505.296 882.162,505.296C893.096,505.296 902.092,514.293 902.092,525.226C902.092,533.188 897.321,540.419 890,543.55Z" style="fill-opacity:0.25;fill-rule:nonzero;"/>
                        </g>
                        <g transform="matrix(1,0,0,1,-24.78,-112.22)">
                            <path d="M875,636.85C864,637.79 830.54,620.64 830.54,620.64C830.54,620.64 860.65,598.08 871.61,597.14C872.283,597.071 872.96,597.037 873.637,597.037C884.57,597.037 893.567,606.033 893.567,616.967C893.567,627.386 885.395,636.137 875,636.85Z" style="fill-opacity:0.25;fill-rule:nonzero;"/>
                        </g>
                        <g transform="matrix(1,0,0,1,-24.78,-112.22)">
                            <path d="M847.92,725.54C837.27,728.31 801.37,717.07 801.37,717.07C801.37,717.07 827.23,689.75 837.88,686.97C839.348,686.632 840.849,686.461 842.355,686.461C853.289,686.461 862.285,695.458 862.285,706.391C862.285,715.244 856.386,723.086 847.88,725.54L847.92,725.54Z" style="fill-opacity:0.25;fill-rule:nonzero;"/>
                        </g>
                        <g transform="matrix(1,0,0,1,-24.78,-112.22)">
                            <path d="M777.2,753.75C777.2,753.75 860,710.1 885.48,641.51C896.18,612.71 915.48,587.87 941.27,571.24C953.539,563.375 966.504,556.65 980,551.15" style="fill:none;fill-rule:nonzero;stroke:rgb(83,84,97);stroke-width:2px;"/>
                        </g>
                        <g transform="matrix(1,0,0,1,-24.78,-112.22)">
                            <path d="M996.3,508C988.42,515.67 979.43,552.21 979.43,552.21C979.43,552.21 1016.2,544.21 1024.09,536.57C1027.83,532.833 1029.93,527.759 1029.93,522.473C1029.93,511.54 1020.94,502.543 1010,502.543C1004.91,502.543 1000,504.497 996.3,508Z" style="fill-rule:nonzero;"/>
                        </g>
                        <g transform="matrix(1,0,0,1,-24.78,-112.22)">
                            <path d="M929.64,526.91C927.19,537.64 939.51,573.19 939.51,573.19C939.51,573.19 966.04,546.52 968.51,535.79C968.905,534.21 969.104,532.588 969.104,530.959C969.104,520.026 960.108,511.029 949.174,511.029C939.763,511.029 931.572,517.695 929.66,526.91L929.64,526.91Z" style="fill-rule:nonzero;"/>
                        </g>
                        <g transform="matrix(1,0,0,1,-24.78,-112.22)">
                            <path d="M856,600.58C859.3,611.08 887.88,635.58 887.88,635.58C887.88,635.58 897.32,599.16 894.02,588.66C891.551,580.175 883.72,574.298 874.884,574.298C863.95,574.298 854.954,583.295 854.954,594.228C854.954,596.416 855.314,598.589 856.02,600.66L856,600.58Z" style="fill-rule:nonzero;"/>
                        </g>
                        <g transform="matrix(1,0,0,1,-24.78,-112.22)">
                            <path d="M812.78,668.87C814.26,679.77 838.29,708.72 838.29,708.72C838.29,708.72 853.75,674.42 852.29,663.51C850.955,653.674 842.466,646.259 832.54,646.259C821.606,646.259 812.609,655.256 812.609,666.19C812.609,667.086 812.669,667.982 812.79,668.87L812.78,668.87Z" style="fill-rule:nonzero;"/>
                        </g>
                        <g transform="matrix(1,0,0,1,-24.78,-112.22)">
                            <path d="M967.15,604.67C956.15,604.36 924.81,583.53 924.81,583.53C924.81,583.53 957.28,564.53 968.28,564.83C978.884,565.281 987.364,574.128 987.364,584.742C987.364,595.675 978.367,604.672 967.434,604.672C967.339,604.672 967.245,604.671 967.15,604.67Z" style="fill-rule:nonzero;"/>
                        </g>
                        <g transform="matrix(1,0,0,1,-24.78,-112.22)">
                            <path d="M915.63,683.89C905.23,680.3 881.56,651.06 881.56,651.06C881.56,651.06 918.22,642.63 928.63,646.22C936.431,649.109 941.64,656.591 941.64,664.91C941.64,675.843 932.643,684.84 921.71,684.84C919.646,684.84 917.595,684.519 915.63,683.89Z" style="fill-rule:nonzero;"/>
                        </g>
                        <g transform="matrix(1,0,0,1,-24.78,-112.22)">
                            <path d="M855,754C844.14,752.22 815.86,727.4 815.86,727.4C815.86,727.4 850.58,712.89 861.44,714.67C870.877,716.387 877.802,724.686 877.802,734.278C877.802,745.211 868.805,754.208 857.872,754.208C856.911,754.208 855.951,754.139 855,754Z" style="fill-rule:nonzero;"/>
                        </g>
                    </g>
                    <path d="M759.68,647.63L750.81,647.63L685.93,312.7L677.61,647.63L668.19,647.63L657.65,313.26L594.43,647.63L584.45,647.63L627.42,303.38L628.82,292.19L713.11,282.76L715.73,303.38L759.68,647.63Z" style="fill:rgb(70,67,83);fill-rule:nonzero;"/>
                    <rect x="526.98" y="215.62" width="53.65" height="33.27" style="fill:rgb(70,67,83);"/>
                    <g transform="matrix(1,0,0,1,-24.78,-112.22)">
                        <path d="M863.05,313.29L895.49,300.19L902.6,300.19C904.745,300.19 906.51,301.955 906.51,304.1L906.51,395.46C906.51,397.605 904.745,399.37 902.6,399.37L895.49,399.37L863.05,385.86L863.05,313.29Z" style="fill:rgb(70,67,83);fill-rule:nonzero;"/>
                    </g>
                    <rect x="771.94" y="205.23" width="66.33" height="64.25" style="fill:rgb(70,67,83);"/>
                    <rect x="656.8" y="84.55" width="42.7" height="7.76" style="fill:rgb(81,78,127);"/>
                    <rect x="608.08" y="94.6" width="120.19" height="87.75" style="fill:rgb(81,78,127);"/>
                    <rect x="608.08" y="171.96" width="120.19" height="10.4" style="fill-opacity:0.1;"/>
                    <rect x="770.91" y="205.23" width="2.69" height="64.25" style="fill-opacity:0.1;"/>
                    <rect x="562.33" y="215.62" width="18.3" height="33.27" style="fill-opacity:0.1;"/>
                    <path d="M715.73,303.38L627.42,303.38L628.82,292.19L713.11,282.76L715.73,303.38Z" style="fill-opacity:0.1;fill-rule:nonzero;"/>
                    <path d="M771.93,184.32C771.93,178.415 767.135,173.62 761.23,173.62L574.69,173.62C568.785,173.62 563.99,178.415 563.99,184.32L563.99,291.01C563.99,296.915 568.785,301.71 574.69,301.71L761.23,301.71C767.135,301.71 771.93,296.915 771.93,291.01L771.93,184.32Z" style="fill:rgb(81,78,127);"/>
                    <path d="M837.64,201.07L838.27,201.07L838.27,273.64L837.64,273.64C834.793,273.64 832.45,271.297 832.45,268.45L832.45,206.26C832.45,203.413 834.793,201.07 837.64,201.07Z" style="fill:rgb(81,78,127);fill-rule:nonzero;"/>
                    <path d="M870.71,188L877.44,188C879.793,188 881.73,189.937 881.73,192.29L881.73,282.91C881.73,285.263 879.793,287.2 877.44,287.2L870.71,287.2L870.71,188Z" style="fill:rgb(81,78,127);fill-rule:nonzero;"/>
                    <rect x="526.98" y="215.62" width="9.57" height="33.27" style="fill-opacity:0.1;"/>
                    <path d="M534.88,212.43C534.88,208.456 531.654,205.23 527.68,205.23L523.37,205.23C519.396,205.23 516.17,208.456 516.17,212.43L516.17,254.59C516.17,258.564 519.396,261.79 523.37,261.79L527.68,261.79C531.654,261.79 534.88,258.564 534.88,254.59L534.88,212.43Z" style="fill:rgb(81,78,127);"/>
                    <circle cx="608.08" cy="94.6" r="59.89" style="fill:rgb(70,67,83);"/>
                    <circle cx="608.08" cy="94.6" r="44.92"/>
                    <circle cx="719.12" cy="95.85" r="43.67" style="fill:rgb(70,67,83);"/>
                    <circle cx="719.12" cy="95.85" r="32.75"/>
                    <circle cx="715.73" cy="192.68" r="5.75"/>
                    <circle cx="734.02" cy="192.68" r="5.75" style="fill-opacity:0.5;"/>
                    <g transform="matrix(1,0,0,1,-24.78,-112.22)">
                        <path d="M686.43,324.74L686.02,323.93C688.556,324.773 690.99,325.893 693.28,327.27C692.28,318.58 658.95,294.18 652.95,294.18C646.95,294.18 640.28,283.82 640.28,283.82C640.28,283.82 622.95,281.15 620.28,278.32C617.61,275.49 599.61,277.14 595.28,278.14C590.95,279.14 584.28,275.47 584.28,275.47C584.28,275.47 580.61,269.47 575.95,269.47C571.29,269.47 566.3,262.79 566.3,262.79C566.3,262.79 561.95,258.79 557.95,258.11C553.95,257.43 548.95,253.11 546.61,249.76C544.27,246.41 532.61,244.76 525.95,245.76C519.29,246.76 501.28,244.4 501.28,244.4C508.61,241.06 510.38,233.04 510.38,233.04C503.82,232.7 486.58,218.22 486.58,218.22C486.58,218.22 487.29,222.9 488.11,229.43L487,228L486.85,228.12C486.498,223.461 486.448,218.785 486.7,214.12C486.7,213.76 486.76,213.4 486.78,213.03C495.469,205.418 499.236,193.572 496.54,182.34C496.36,181.58 496.15,180.84 495.91,180.11C497.186,180.641 498.534,180.978 499.91,181.11L500.62,181.11C502.293,181.121 503.892,180.414 505.01,179.17C505.197,178.933 505.362,178.679 505.5,178.41C505.534,178.359 505.564,178.305 505.59,178.25C505.709,178.005 505.809,177.75 505.89,177.49C505.918,177.398 505.941,177.304 505.96,177.21C506.011,177.006 506.051,176.799 506.08,176.59L506.08,175.67C506.039,174.133 505.699,172.618 505.08,171.21C504.03,168.63 502.52,166.08 502.63,163.29C502.63,163.06 502.68,162.84 502.71,162.62C502.99,160.43 504.14,158.4 504.83,156.29L504.83,156.2C504.93,155.89 505.01,155.58 505.08,155.27C505.113,155.178 505.139,155.085 505.16,154.99C505.234,154.624 505.285,154.253 505.31,153.88C505.335,153.507 505.31,153.83 505.31,153.8C505.57,149.62 502.2,145.97 498.38,144.28C494.96,142.76 491.05,142.35 487.92,140.28C484.35,137.93 482.39,133.86 479.75,130.49C475.91,125.59 469.9,121.93 463.75,122.63C459.96,123.06 456.52,125.05 452.75,125.82C447.02,127.01 440.96,125.28 435.26,126.61C433.876,126.84 432.616,127.548 431.7,128.61C431.317,129.146 431.07,129.767 430.98,130.42C430.9,131.024 430.9,131.636 430.98,132.24L430.98,132.29C431.044,132.866 431.148,133.438 431.29,134L431.38,134.35C431.38,134.47 431.43,134.58 431.46,134.7C431.49,134.82 431.59,135.17 431.65,135.4C431.76,135.79 431.85,136.18 431.95,136.58L431.95,136.72C432.04,137.13 432.13,137.54 432.2,137.96C432.361,138.826 432.468,139.701 432.52,140.58C432.755,143.054 432.221,145.541 430.99,147.7C428.49,151.7 423.18,153.47 420.87,157.64C420.324,158.646 419.984,159.751 419.87,160.89C419.828,161.268 419.812,161.649 419.82,162.03L419.82,162.18C419.82,162.51 419.82,162.84 419.91,163.18C419.905,163.26 419.905,163.34 419.91,163.42C419.961,163.717 420.028,164.01 420.11,164.3C420.11,164.4 420.16,164.49 420.19,164.58C420.3,164.922 420.434,165.256 420.59,165.58C421.66,167.81 423.68,169.65 424.1,172.07C424.1,172.14 424.1,172.21 424.15,172.29C424.38,174.11 423.63,175.89 423.24,177.68C423.189,177.898 423.149,178.118 423.12,178.34L423.12,179.67C423.115,179.763 423.115,179.857 423.12,179.95L423.12,180.6C423.12,180.69 423.18,180.85 423.22,180.97L423.29,181.22C423.337,181.339 423.391,181.456 423.45,181.57L423.56,181.79C423.633,181.911 423.713,182.028 423.8,182.14C423.837,182.196 423.877,182.249 423.92,182.3C424.056,182.461 424.211,182.605 424.38,182.73C425.76,183.73 427.91,183.47 429.04,184.73C429.167,184.883 429.275,185.051 429.36,185.23L429.42,185.35C429.503,185.526 429.566,185.71 429.61,185.9C429.77,186.652 429.77,187.428 429.61,188.18C429.21,190.18 428.36,192 427.91,193.96C427.82,194.36 427.76,194.77 427.71,195.18C427.71,195.37 427.71,195.55 427.66,195.73L427.66,196.37C427.66,196.54 427.66,196.46 427.66,196.51C427.66,196.76 427.66,197.02 427.72,197.27C427.78,197.52 427.72,197.51 427.78,197.62L427.84,197.91C427.84,198.04 427.91,198.17 427.95,198.3L428.04,198.55C428.09,198.69 428.16,198.83 428.22,198.97C428.249,199.035 428.283,199.099 428.32,199.16C428.421,199.365 428.541,199.559 428.68,199.74C429.89,201.38 431.88,201.93 433.98,201.94C435.171,201.933 436.358,201.799 437.52,201.54C437.78,202.15 438.05,202.76 438.34,203.35C439.79,206.269 441.69,208.942 443.97,211.27C443.97,211.58 443.91,211.88 443.87,212.2C443.64,214.48 443.36,216.93 443.04,219.4C440.45,218.21 438.45,217.75 437.66,218.61C434.31,222.29 437.66,234.99 437.66,234.99C437.66,234.99 421.31,234.99 417.31,238.66C413.31,242.33 405.98,238.66 405.98,238.66C405.98,238.66 390.98,240.34 391.98,243.35C392.98,246.36 383.98,243.35 383.98,243.35C383.98,243.35 377.64,244.02 377.98,248.35C378.32,252.68 368.31,254.69 369.64,257.7C370.97,260.71 363.64,262.7 363.64,262.7C363.64,262.7 356.31,262.37 358.98,266.7C361.65,271.03 354.98,276.06 351.65,276.7C348.32,277.34 343.98,285.05 343.98,285.05C343.98,285.05 331.14,287.39 331.72,291.4C332.3,295.41 311.98,324.1 311.98,324.1C311.98,324.1 305.31,337.85 309.98,347.88C314.65,357.91 317.98,364.59 318.98,368.26C319.98,371.93 332.1,388.09 332,391.1C332,392.04 335,397.1 339.09,403.52L337.89,404.76L335.26,407.47C335.26,407.47 326.92,428.19 336.92,429.19C345.37,430.03 351.44,430.64 354.52,429.8C355.02,429.684 355.494,429.477 355.92,429.19L356.04,429.1C359.68,434.47 362.26,438.22 362.26,438.22C362.26,438.22 362.62,437.69 363.26,436.78L364.26,438.21C364.26,438.21 365.06,437.07 366.42,435.21C365.98,444.3 365.92,453.26 365.92,453.26C365.92,453.26 370.26,452.59 368.26,472.64C366.26,492.69 380.26,509.06 380.26,509.06L380.26,538.81C380.26,538.81 380.26,539.56 380.4,540.81C380.77,545.08 381.99,555.15 385.59,561.81C390.26,570.49 385.59,593.22 385.59,593.22C385.59,593.22 385.28,611.76 386.4,634.88C386.4,635.51 386.47,636.16 386.5,636.8C366.28,653.7 344.59,676.1 344.59,676.1C345.652,676.397 346.663,676.852 347.59,677.45L346.38,679L340.87,685.79L336.61,691.05L343.36,711.84L350.73,708.96C350.73,708.96 354.73,715.89 353.89,720.59C353.762,721.44 353.418,722.242 352.89,722.92C352.635,723.261 352.458,723.654 352.37,724.07C350.44,731.6 358.49,764.07 371.26,765.48C371.26,765.48 375.59,766.91 376.98,763.01C377.65,761.13 377.64,758.01 376.14,752.94C376.14,752.94 369.39,744.8 373.76,736.03C376.32,730.9 380.55,724.03 383.61,719.18L384.87,717.18C387.62,720.65 389.31,722.88 389.31,722.88L399.13,712.32C399.34,712.77 399.55,713.21 399.77,713.63C400.505,715.101 401.354,716.512 402.31,717.85L408.97,744.26L411.66,743.66C411.6,744.3 411.56,744.98 411.52,745.66C411.3,750.4 411.52,756.55 413.71,760.94C415.35,764.3 418.12,766.64 422.64,766.53C438.14,766.15 442.64,757.76 442.64,757.76L442.64,736.76L447.97,735.57C447.97,735.57 447.58,689.43 446.21,663.7C446.21,663.13 446.15,662.58 446.12,662.04L446.12,661.81L480.35,625L482.98,623.95C504.98,615.26 505.32,592.87 505.32,592.87C505.32,592.87 505.32,580.51 507.98,570.15C510.64,559.79 508.32,505.98 503.32,492.62C498.32,479.26 496.65,464.2 496.65,464.2C496.65,464.2 501.65,457.2 496.65,451.37C495.238,449.625 494.061,447.702 493.15,445.65L499.66,444.58L503.41,443.96L505.41,443.62C504.41,452.46 504.24,459.25 506.61,460.87C513.95,465.87 538.61,449.17 538.61,449.17C529.61,449.17 524.61,382 526.44,380.33C528.27,378.66 531,345 528.61,339C526.22,333 537,306.21 537,306.21L538.66,303.75C538.66,303.75 578,320.92 582.33,324.21C586.66,327.5 600.33,316.21 602.66,320.58C604.99,324.95 619.66,331.46 619.66,331.46C619.66,331.46 641.33,329.27 643.66,334.62C645.99,339.97 660,352.5 660,352.5C660.007,349.562 660.184,346.627 660.53,343.71C660.82,344.4 661.1,345.1 661.4,345.81C668.04,361.52 679.09,381.41 689.33,370.71C700.93,358.55 692.1,336.07 686.43,324.74ZM389.94,395.74L389.94,395.93L389.86,395.85L389.94,395.74ZM382.18,318.66L377.94,363.37L369.61,372L368.61,373.06L360,363.69C360,363.69 355.66,361.69 360,358.01C364.34,354.33 352.67,346.01 352.67,346.01C352.67,346.01 352.33,340.01 356.67,338.33C361.01,336.65 366.67,325.63 366.67,325.63L382.34,317.63L382.18,318.66ZM437.94,547.5C438.244,547.218 438.579,546.973 438.94,546.77C440.81,545.71 442.01,546.87 442.63,548.91C443.447,552.328 443.199,555.916 441.92,559.19C439.59,564.54 445.26,585.93 445.26,585.93C445.26,585.93 437.92,589.26 436.59,595.62C436.392,596.402 436.053,597.14 435.59,597.8C435.5,597.24 435.42,596.7 435.34,596.18C434.69,592.18 434.34,589.6 434.34,589.6C433.145,584.454 432.917,579.129 433.67,573.9C434.73,567.47 436.87,554.41 437.67,549.46C437.87,548.26 437.98,547.54 437.99,547.46L437.94,547.5Z" style="fill:url(#_Linear2);fill-rule:nonzero;"/>
                    </g>
                    <g transform="matrix(1,0,0,1,-24.78,-112.22)">
                        <path d="M484.42,221.92L486.58,220.48L492.67,233.33L490.33,236.08L483.25,236.08C483.25,236.08 483.5,229.08 483.67,228.83C483.84,228.58 484.42,221.92 484.42,221.92Z" style="fill:rgb(70,67,83);fill-rule:nonzero;"/>
                    </g>
                    <g transform="matrix(1,0,0,1,-24.78,-112.22)">
                        <path d="M442.61,731.27L442.61,758.77C442.61,758.77 438.11,767.14 422.61,767.52C418.762,767.747 415.169,765.506 413.68,761.95C411.52,757.57 411.27,751.43 411.49,746.7C411.6,744.334 411.851,741.976 412.24,739.64L442.61,731.27Z" style="fill:rgb(63,61,86);fill-rule:nonzero;"/>
                    </g>
                    <g transform="matrix(1,0,0,1,-24.78,-112.22)">
                        <path d="M442.61,731.27L442.61,739.78L411.49,746.7C411.6,744.334 411.851,741.976 412.24,739.64L442.61,731.27Z" style="fill-opacity:0.1;fill-rule:nonzero;"/>
                    </g>
                    <g transform="matrix(1,0,0,1,-24.78,-112.22)">
                        <path d="M447.94,736.6L408.94,745.27L402.28,718.93C401.326,717.594 400.477,716.187 399.74,714.72C399.31,713.88 398.89,712.99 398.49,712.06C391.23,695.45 388,665.49 386.62,640C386.55,638.71 386.48,637.43 386.42,636.17C385.3,613.11 385.61,594.61 385.61,594.61C385.61,594.61 390.28,571.94 385.61,563.28C382.01,556.6 380.79,546.56 380.42,542.28C380.32,541.01 380.28,540.28 380.28,540.28L381,538.39L383.94,530.61L416.28,530.61L435.08,546.52L437.94,548.94L437.62,550.94C436.81,555.88 434.67,568.94 433.62,575.32C432.867,580.536 433.095,585.847 434.29,590.98C435.485,596.113 434.68,593.52 435.29,597.55C435.44,598.55 435.61,599.61 435.8,600.76C438.19,615.54 442.67,642.53 444.58,648.98C445.11,650.75 445.58,655.19 445.93,661.2C446.01,662.4 446.08,663.65 446.15,664.96C447.55,690.58 447.94,736.6 447.94,736.6Z" style="fill:rgb(81,78,127);fill-rule:nonzero;"/>
                    </g>
                    <g transform="matrix(1,0,0,1,-24.78,-112.22)">
                        <path d="M442.61,758.49L442.61,758.77C442.61,758.77 438.11,767.14 422.61,767.52C418.762,767.747 415.169,765.506 413.68,761.95C420.63,763.66 431.91,764.76 442.61,758.49Z" style="fill-opacity:0.1;fill-rule:nonzero;"/>
                    </g>
                    <g transform="matrix(1,0,0,1,-24.78,-112.22)">
                        <path d="M689.28,372.6C679,383.27 668,363.43 661.35,347.76C657.62,338.94 655.28,331.43 655.28,331.43L682.64,319.85C682.64,319.85 684.32,322.52 686.43,326.75C692.1,338.05 700.93,360.47 689.28,372.6Z" style="fill:rgb(161,97,106);fill-rule:nonzero;"/>
                    </g>
                    <g transform="matrix(1,0,0,1,-24.78,-112.22)">
                        <path d="M486.73,216.39C486.292,226.289 487.033,236.206 488.94,245.93C490.847,255.654 433.28,251.93 438.28,243.27C441.21,238.19 443.11,224.78 444.17,214.53C444.94,207.27 445.28,201.6 445.28,201.6C445.28,201.6 498.61,180.27 490.61,198.27C488.22,203.64 487.11,210 486.73,216.39Z" style="fill:rgb(161,97,106);fill-rule:nonzero;"/>
                    </g>
                    <path d="M466.65,247.38L459.17,336.71L493.5,331.05L487.5,257.38L489.5,237.71L466.65,247.38Z" style="fill:rgb(70,67,83);fill-rule:nonzero;"/>
                    <path d="M493.5,331.19L478.59,333.65L459.16,336.85L460.53,320.55L466.65,247.52L474.44,244.22L479.96,241.89L489.5,237.85L487.5,257.52L493.5,331.19Z" style="fill-opacity:0.1;fill-rule:nonzero;"/>
                    <g transform="matrix(1,0,0,1,-24.78,-112.22)">
                        <path d="M373.73,737C369.36,745.75 376.11,753.87 376.11,753.87C377.61,758.94 377.62,762.04 376.95,763.87C375.56,767.76 371.23,766.33 371.23,766.33C357.61,764.83 349.36,728.09 352.86,723.88C356.36,719.67 350.73,710 350.73,710L343.36,712.87L336.61,692.13L340.87,686.88L346.38,680.1L350.11,675.5L387.36,714.37C387.36,714.37 385.77,716.76 383.58,720.19C380.52,725 376.29,731.9 373.73,737Z" style="fill:rgb(63,61,86);fill-rule:nonzero;"/>
                    </g>
                    <g transform="matrix(1,0,0,1,-24.78,-112.22)">
                        <path d="M446.18,664.91L399.74,714.72C391.6,698.82 388.1,666.92 386.62,639.99C395.27,632.79 403.62,626.59 409.94,623.6C409.94,623.6 431.32,608.13 435.83,600.71C438.22,615.49 442.7,642.48 444.61,648.93C445.24,651.05 445.76,657 446.18,664.91Z" style="fill-opacity:0.1;fill-rule:nonzero;"/>
                    </g>
                    <path d="M410.3,434.29L356.22,426.16L359.16,418.38L391.5,418.38L410.3,434.29Z" style="fill-opacity:0.1;fill-rule:nonzero;"/>
                    <g transform="matrix(1,0,0,1,-24.78,-112.22)">
                        <path d="M446,661.15L398.53,712.06C391.23,695.45 388,665.49 386.62,640C386.55,638.71 386.48,637.43 386.42,636.17C395.15,628.89 403.6,622.63 409.94,619.61C409.94,619.61 429.89,605.18 435.32,597.51C435.47,598.51 435.64,599.57 435.83,600.72C438.22,615.5 442.7,642.49 444.61,648.94C445.14,650.7 445.58,655.14 446,661.15Z" style="fill-opacity:0.1;fill-rule:nonzero;"/>
                    </g>
                    <g transform="matrix(1,0,0,1,-24.78,-112.22)">
                        <path d="M387.36,714.39C387.36,714.39 385.77,716.78 383.58,720.21C375.63,710.16 356.78,687.02 346.38,680.12L350.11,675.52L387.36,714.39Z" style="fill-opacity:0.1;fill-rule:nonzero;"/>
                    </g>
                    <g transform="matrix(1,0,0,1,-24.78,-112.22)">
                        <path d="M507.94,571.59C505.28,581.93 505.28,594.26 505.28,594.26C505.28,594.26 504.94,616.59 482.94,625.26L480.31,626.26L389.31,723.89C389.31,723.89 355.64,679.89 344.64,677.22C344.64,677.22 388.97,631.55 409.97,621.55C409.97,621.55 435.31,603.22 436.64,596.89C437.97,590.56 445.31,587.22 445.31,587.22C445.31,587.22 439.64,565.89 441.97,560.55C443.249,557.287 443.497,553.708 442.68,550.3C442.06,548.3 440.86,547.11 438.99,548.16C438.629,548.363 438.294,548.608 437.99,548.89L380.33,540.22L380.33,510.59C380.33,510.59 366.33,494.26 368.33,474.26C370.33,454.26 365.99,454.93 365.99,454.93C365.99,454.93 366.2,421.15 369.05,418.33C371.9,415.51 399.28,402.59 399.28,402.59L485.12,417.84L488.66,434.26C488.66,434.26 491.66,447.32 496.66,453.12C501.66,458.92 496.66,465.91 496.66,465.91C496.66,465.91 498.33,480.91 503.33,494.26C508.33,507.61 510.61,561.26 507.94,571.59Z" style="fill:rgb(81,78,127);fill-rule:nonzero;"/>
                    </g>
                    <g transform="matrix(1,0,0,1,-24.78,-112.22)">
                        <path d="M490.61,198.27C488.22,203.64 487.11,210.04 486.73,216.39C474.368,227.098 455.551,226.275 444.17,214.53C444.94,207.27 445.28,201.6 445.28,201.6C445.28,201.6 498.61,180.27 490.61,198.27Z" style="fill-opacity:0.1;fill-rule:nonzero;"/>
                    </g>
                    <g transform="matrix(1,0,0,1,-24.78,-112.22)">
                        <path d="M497.43,192C497.42,208.999 483.429,222.981 466.43,222.981C449.424,222.981 435.43,208.987 435.43,191.981C435.43,174.975 449.424,160.981 466.43,160.981C480.709,160.981 493.23,170.847 496.57,184.73C497.143,187.111 497.431,189.551 497.43,192Z" style="fill:rgb(161,97,106);fill-rule:nonzero;"/>
                    </g>
                    <g transform="matrix(1,0,0,1,-24.78,-112.22)">
                        <path d="M472.28,245.93C472.28,245.93 450,235.6 448.61,234.26C447.22,232.92 401,351.6 401,351.6L388,410.6C388,410.6 457.33,440.26 472.33,436.26C487.33,432.26 488.66,436.26 488.66,436.26C488.66,436.26 504,350.26 509,342.6C514,334.94 504.33,256.93 504.33,256.93L487,234.25L472.28,245.93Z" style="fill-opacity:0.1;fill-rule:nonzero;"/>
                    </g>
                    <g transform="matrix(1,0,0,1,-24.78,-112.22)">
                        <path d="M472.28,241.93C472.28,241.93 450,231.6 448.61,230.26C447.22,228.92 401,347.6 401,347.6L388,406.6C388,406.6 457.33,436.26 472.33,432.26C487.33,428.26 488.66,432.26 488.66,432.26C488.66,432.26 504,346.26 509,338.6C514,330.94 504.33,252.93 504.33,252.93L487,230.25L472.28,241.93Z" style="fill-opacity:0.1;fill-rule:nonzero;"/>
                    </g>
                    <g transform="matrix(1,0,0,1,-24.78,-112.22)">
                        <path d="M508.94,340.6C507.94,342.19 506.43,347.13 504.74,353.97C503.56,358.73 502.28,364.4 500.97,370.5C495.07,398.03 488.61,434.27 488.61,434.27C488.61,434.27 488.2,433.05 485.31,432.63C482.97,432.29 478.99,432.48 472.31,434.27C457.31,438.27 387.97,408.6 387.97,408.6L389.97,399.6L400.97,349.6C400.97,349.6 447.31,230.93 448.64,232.27C449.45,233.08 458.11,237.27 464.71,240.38C468.92,242.38 472.31,243.93 472.31,243.93L486.31,232.87L487.08,232.26L504.33,254.93C504.33,254.93 513.94,332.93 508.94,340.6Z" style="fill-rule:nonzero;"/>
                    </g>
                    <g transform="matrix(1,0,0,1,-24.78,-112.22)">
                        <path d="M455.94,255.6C457.94,263.29 453.28,275.93 453.28,275.93C453.28,275.93 437.28,315.27 432.61,333.45C427.94,351.63 401.23,388.27 401.23,388.27C401.23,388.27 397.31,392.2 391.82,397.67C391.21,398.28 390.57,398.91 389.93,399.57L400.93,349.57C400.93,349.57 447.27,230.9 448.6,232.24C449.41,233.05 458.07,237.24 464.67,240.35C460.54,244.11 454.61,250.51 455.94,255.6Z" style="fill-opacity:0.1;fill-rule:nonzero;"/>
                    </g>
                    <g transform="matrix(1,0,0,1,-24.78,-112.22)">
                        <path d="M453.94,255.6C455.94,263.29 451.28,275.93 451.28,275.93C451.28,275.93 435.28,315.27 430.61,333.45C425.94,351.63 399.23,388.27 399.23,388.27C399.23,388.27 395.31,392.2 389.82,397.67C389.17,398.32 388.49,398.99 387.82,399.67C377.1,410.34 362.03,425.3 357.32,429.67C356.63,430.32 356.16,430.74 355.96,430.88C355.534,431.167 355.06,431.374 354.56,431.49C351.48,432.33 345.41,431.72 336.96,430.88C326.96,429.88 335.3,409.22 335.3,409.22L337.93,406.51L340.33,404.03L367.57,376L369.57,373.89L377.9,365.3L382.14,320.7L382.24,319.63C382.24,319.63 381,316.8 379.09,312.48C374,300.79 364,278.23 360.34,270.94C359.92,270.09 359.59,269.46 359.34,269.07C359.34,269.02 359.29,268.97 359.26,268.93C356.59,264.6 363.92,264.93 363.92,264.93C363.92,264.93 371.26,262.93 369.92,259.93C368.58,256.93 378.59,254.93 378.26,250.6C377.93,246.27 384.26,245.6 384.26,245.6C384.26,245.6 393.26,248.6 392.26,245.6C391.26,242.6 406.26,240.93 406.26,240.93C406.26,240.93 413.59,244.6 417.59,240.93C421.59,237.26 438,237.27 438,237.27C438,237.27 434.65,224.6 438,220.93C441.35,217.26 466.47,237.27 466.47,237.27C466.47,237.27 451.94,247.92 453.94,255.6Z" style="fill:rgb(70,67,83);fill-rule:nonzero;"/>
                    </g>
                    <g transform="matrix(1,0,0,1,-24.78,-112.22)">
                        <path d="M370.61,426.26C370.61,426.26 398.28,465.26 417.61,452.6C436.94,439.94 391.61,406.93 391.61,406.93L370.61,426.26Z" style="fill-opacity:0.1;fill-rule:nonzero;"/>
                    </g>
                    <g transform="matrix(1,0,0,1,-24.78,-112.22)">
                        <path d="M370.61,424.26C370.61,424.26 398.28,463.26 417.61,450.6C436.94,437.94 391.61,404.93 391.61,404.93L370.61,424.26Z" style="fill:rgb(161,97,106);fill-rule:nonzero;"/>
                    </g>
                    <g transform="matrix(1,0,0,1,-24.78,-112.22)">
                        <path d="M503.37,445.73C505.48,427.32 511.6,399.66 506.61,391.27C504.14,387.11 502.31,379.18 500.97,370.5C500.25,365.83 499.68,360.94 499.22,356.3C498,343.99 497.61,333.45 497.61,333.45C497.61,333.45 485.61,279.93 487.94,268.93C489.4,262.05 487.72,244.81 486.26,232.87L487.03,232.26L504.28,254.93C504.28,254.93 513.94,332.93 508.94,340.6C507.94,342.19 506.43,347.13 504.74,353.97L514.28,349.97L512.28,369.64L518.28,443.31L503.37,445.73Z" style="fill-opacity:0.1;fill-rule:nonzero;"/>
                    </g>
                    <g transform="matrix(1,0,0,1,-24.78,-112.22)">
                        <path d="M486.58,220.48C486.58,220.48 503.82,234.93 510.38,235.26C510.38,235.26 508.61,243.26 501.28,246.6C501.28,246.6 519.28,248.98 525.95,247.95C532.62,246.92 544.28,248.6 546.61,251.95C548.94,255.3 554,259.6 558,260.26C562,260.92 566.35,264.93 566.35,264.93L537,308.26C537,308.26 526.33,334.93 528.66,340.93C530.99,346.93 528.32,380.6 526.49,382.26C524.66,383.92 529.66,450.93 538.66,450.93C538.66,450.93 514,467.6 506.66,462.6C499.32,457.6 516,403.6 508.66,391.26C501.32,378.92 499.66,333.44 499.66,333.44C499.66,333.44 487.66,279.93 490,268.93C492.34,257.93 486.58,220.48 486.58,220.48Z" style="fill:rgb(70,67,83);fill-rule:nonzero;"/>
                    </g>
                    <g transform="matrix(1,0,0,1,-24.78,-112.22)">
                        <path d="M686.43,326.75C677.52,323.97 663.87,323.89 661.35,347.75C657.62,338.93 655.28,331.42 655.28,331.42L682.64,319.84C682.64,319.84 684.32,322.52 686.43,326.75Z" style="fill-opacity:0.1;fill-rule:nonzero;"/>
                    </g>
                    <g transform="matrix(1,0,0,1,-24.78,-112.22)">
                        <path d="M550,262.93L566.35,264.93C566.35,264.93 571.35,271.6 576,271.6C580.65,271.6 584.33,277.6 584.33,277.6C584.33,277.6 591,281.26 595.33,280.26C599.66,279.26 617.66,277.61 620.33,280.44C623,283.27 640.33,285.93 640.33,285.93C640.33,285.93 647,296.26 653,296.26C659,296.26 692.33,320.6 693.33,329.26C693.33,329.26 660.33,308.26 660,354.43C660,354.43 646,341.93 643.66,336.6C641.32,331.27 619.66,333.44 619.66,333.44C619.66,333.44 605,326.93 602.66,322.6C600.32,318.27 586.66,329.5 582.33,326.21C578,322.92 538.66,305.8 538.66,305.8L526.49,282.93L550,262.93Z" style="fill:rgb(70,67,83);fill-rule:nonzero;"/>
                    </g>
                    <circle cx="449.83" cy="188.38" r="2.83" style="fill:rgb(63,61,86);"/>
                    <circle cx="447" cy="247.47" r="2.83" style="fill:rgb(63,61,86);"/>
                    <circle cx="449.83" cy="216.37" r="2.83" style="fill:rgb(63,61,86);"/>
                    <circle cx="441.66" cy="278.57" r="2.83" style="fill:rgb(63,61,86);"/>
                    <g transform="matrix(1,0,0,1,-24.78,-112.22)">
                        <path d="M377,763.92C375.61,767.81 371.28,766.38 371.28,766.38C357.66,764.88 349.41,728.14 352.91,723.93C356.41,719.72 350.73,710 350.73,710L343.36,712.87L336.61,692.13L340.87,686.88C345.11,694.23 351.18,704.8 352.61,707.5C355.325,713.099 356.613,719.283 356.36,725.5C356.13,732 363.67,763.08 377,763.92Z" style="fill-opacity:0.1;fill-rule:nonzero;"/>
                    </g>
                    <g transform="matrix(1,0,0,1,-24.78,-112.22)">
                        <path d="M496.57,184.69C495.89,184.46 495.21,184.19 494.57,183.92C492.28,182.99 489.87,181.92 488.48,179.92C487.21,178.06 486.8,175.44 484.82,174.38C482.54,173.16 479.82,174.81 477.35,175.38C474.41,176.07 471.35,175.25 468.49,174.2C464.23,172.63 458.28,169.74 453.91,172.73C450.51,175.05 451.83,179.97 450.96,183.48C449.61,188.93 443.82,192.48 442.73,197.99C442.24,200.42 442.56,203.39 440.59,204.9C440.015,205.31 439.361,205.596 438.67,205.74C436.562,201.471 435.465,196.774 435.465,192.013C435.465,175.007 449.459,161.013 466.465,161.013C480.736,161.013 493.252,170.868 496.6,184.74L496.57,184.69Z" style="fill-opacity:0.1;fill-rule:nonzero;"/>
                    </g>
                    <g transform="matrix(1,0,0,1,-24.78,-112.22)">
                        <path d="M468.47,172.17C471.3,173.22 474.38,174.04 477.33,173.34C479.84,172.75 482.51,171.1 484.79,172.34C486.79,173.41 487.19,176.02 488.45,177.88C489.84,179.88 492.25,181 494.55,181.88C496.265,182.68 498.099,183.193 499.98,183.4C501.887,183.587 503.775,182.872 505.08,181.47C506.86,179.32 506.32,176.1 505.26,173.53C504.2,170.96 502.7,168.4 502.81,165.62C502.94,162.32 505.33,159.45 505.53,156.16C505.79,151.99 502.42,148.35 498.6,146.66C495.18,145.15 491.27,144.73 488.14,142.66C484.57,140.32 482.61,136.26 479.97,132.9C476.13,128.01 470.12,124.36 463.97,125.06C460.18,125.49 456.74,127.47 452.97,128.24C447.24,129.43 441.18,127.7 435.48,129.03C434.103,129.247 432.844,129.936 431.92,130.98C430.52,132.86 431.24,135.49 431.86,137.75C432.97,141.82 433.44,146.43 431.23,150.01C428.73,154.06 423.42,155.77 421.11,159.93C419.756,162.404 419.67,165.383 420.88,167.93C421.98,170.23 424.11,172.1 424.44,174.63C424.67,176.45 423.92,178.22 423.53,180C423.14,181.78 423.25,184 424.72,185C426.19,186 428.25,185.75 429.38,187C430.072,188.005 430.267,189.273 429.91,190.44C429.51,192.44 428.66,194.25 428.21,196.21C427.627,198.154 427.907,200.257 428.98,201.98C430.92,204.6 434.84,204.44 437.98,203.74C438.886,203.596 439.75,203.254 440.51,202.74C442.51,201.23 442.16,198.26 442.65,195.83C443.74,190.33 449.53,186.76 450.88,181.32C451.75,177.81 450.43,172.88 453.83,170.56C458.25,167.71 464.21,170.6 468.47,172.17Z" style="fill:rgb(70,67,83);fill-rule:nonzero;"/>
                    </g>
                    <g transform="matrix(1,0,0,1,-24.78,-112.22)">
                        <path d="M463.61,533.93C463.61,533.93 495,553.93 496,561.6L463.61,533.93Z" style="fill-opacity:0.1;fill-rule:nonzero;"/>
                    </g>
                    <g transform="matrix(1,0,0,1,-24.78,-112.22)">
                        <path d="M462,549.93C462,549.93 498,567.26 496,573.26L462,549.93Z" style="fill-opacity:0.1;fill-rule:nonzero;"/>
                    </g>
                    <g transform="matrix(1,0,0,1,-24.78,-112.22)">
                        <path d="M459.61,565.26C459.61,565.26 479.95,575.93 481.28,582.26L459.61,565.26Z" style="fill-opacity:0.1;fill-rule:nonzero;"/>
                    </g>
                    <g transform="matrix(1,0,0,1,-24.78,-112.22)">
                        <path d="M468.28,589.26C468.28,589.26 481.61,600.93 484.28,597.93C486.95,594.93 468.28,589.26 468.28,589.26Z" style="fill-opacity:0.1;fill-rule:nonzero;"/>
                    </g>
                    <g transform="matrix(1,0,0,1,-24.78,-112.22)">
                        <path d="M449.61,596.6C449.61,596.6 460,613.26 455,614.26C450,615.26 449.61,596.6 449.61,596.6Z" style="fill-opacity:0.1;fill-rule:nonzero;"/>
                    </g>
                    <g transform="matrix(1,0,0,1,-24.78,-112.22)">
                        <path d="M404,300.6C404,300.6 386.33,311.26 391.66,313.93C396.99,316.6 404,300.6 404,300.6Z" style="fill-opacity:0.1;fill-rule:nonzero;"/>
                    </g>
                    <g transform="matrix(1,0,0,1,-24.78,-112.22)">
                        <path d="M404,261.26C404,261.26 386,294.26 394.33,291.93C402.66,289.6 404,261.26 404,261.26Z" style="fill-opacity:0.1;fill-rule:nonzero;"/>
                    </g>
                    <g transform="matrix(1,0,0,1,-24.78,-112.22)">
                        <path d="M595.28,294.26C595.28,294.26 584.28,307.2 586.28,314.26L595.28,294.26Z" style="fill-opacity:0.1;fill-rule:nonzero;"/>
                    </g>
                    <g transform="matrix(1,0,0,1,-24.78,-112.22)">
                        <path d="M624,300.6C624,300.6 607.49,315.26 609.91,316.93L624,300.6Z" style="fill-opacity:0.1;fill-rule:nonzero;"/>
                    </g>
                    <g transform="matrix(1,0,0,1,-24.78,-112.22)">
                        <path d="M634.28,318.61C634.28,318.61 632.61,328.25 635.28,328.61L634.28,318.61Z" style="fill-opacity:0.1;fill-rule:nonzero;"/>
                    </g>
                    <g transform="matrix(1,0,0,1,-24.78,-112.22)">
                        <path d="M454.11,522C449.86,527.5 449.86,537.25 447.94,541.25C446.89,543.45 444.55,547.25 442.65,550.33C442.03,548.33 440.83,547.14 438.96,548.19C437.73,539.02 435.56,523.19 434.86,520C433.86,515.5 444.86,503.5 444.86,503.5C444.86,503.5 455.61,505.75 458.36,511.25C461.11,516.75 458.36,516.51 454.11,522Z" style="fill-opacity:0.05;fill-rule:nonzero;"/>
                    </g>
                    <g transform="matrix(1,0,0,1,-24.78,-112.22)">
                        <path d="M398.61,406.27C386.61,407.93 364.28,439.93 364.28,439.93C364.28,439.93 361.35,435.67 357.28,429.72C352.16,422.17 345.28,411.88 340.28,404.08L369.58,373.86L374.91,379.6C374.91,379.6 385.25,389.93 385.25,391.93C385.25,392.71 387.25,395.08 389.79,397.67C393.68,401.7 398.61,406.27 398.61,406.27Z" style="fill-opacity:0.1;fill-rule:nonzero;"/>
                    </g>
                    <g transform="matrix(1,0,0,1,-24.78,-112.22)">
                        <path d="M360.34,270.94C359.92,270.09 359.59,269.46 359.34,269.07L372.26,269.93L379.11,312.45C374,300.79 364,278.23 360.34,270.94Z" style="fill-opacity:0.1;fill-rule:nonzero;"/>
                    </g>
                    <g transform="matrix(1,0,0,1,-24.78,-112.22)">
                        <path d="M387.8,399.7C377.08,410.37 362.01,425.33 357.3,429.7C356.61,430.35 356.14,430.77 355.94,430.91C355.514,431.197 355.04,431.404 354.54,431.52C349.83,424.6 343.11,414.63 337.91,406.52L340.31,404.04L367.57,376L370.94,379.63C370.94,379.63 381.28,389.96 381.28,391.96C381.28,392.92 384.51,396.4 387.8,399.7Z" style="fill-opacity:0.1;fill-rule:nonzero;"/>
                    </g>
                    <g transform="matrix(1,0,0,1,-24.78,-112.22)">
                        <path d="M374.28,269.93L359.28,268.93C359.28,268.93 355.28,278.26 351.95,278.93C348.62,279.6 344.28,287.26 344.28,287.26C344.28,287.26 331.44,289.6 332,293.6C332.56,297.6 312.26,326.21 312.26,326.21C312.26,326.21 305.59,339.93 310.26,349.93C314.93,359.93 318.26,366.6 319.26,370.26C320.26,373.92 332.1,389.93 332,392.93C331.9,395.93 362.26,439.93 362.26,439.93C362.26,439.93 384.59,407.93 396.59,406.26C396.59,406.26 383.26,393.93 383.26,391.93C383.26,389.93 373,379.6 373,379.6L360,365.6C360,365.6 355.66,363.6 360,359.93C364.34,356.26 352.67,347.93 352.67,347.93C352.67,347.93 352.33,341.93 356.67,340.26C361.01,338.59 366.67,327.6 366.67,327.6L382.34,319.6L374.28,269.93Z" style="fill:rgb(70,67,83);fill-rule:nonzero;"/>
                    </g>
                    <g transform="matrix(1,0,0,1,-24.78,-112.22)">
                        <path d="M317,336.26C317,336.26 335,332.6 335.33,334.93C335.66,337.26 317,336.26 317,336.26Z" style="fill-opacity:0.1;fill-rule:nonzero;"/>
                    </g>
                    <g transform="matrix(1,0,0,1,-24.78,-112.22)">
                        <path d="M332,354.43C332,354.43 347.26,356.43 346.59,359.69C345.92,362.95 332,354.43 332,354.43Z" style="fill-opacity:0.1;fill-rule:nonzero;"/>
                    </g>
                    <g transform="matrix(1,0,0,1,-24.78,-112.22)">
                        <path d="M344.61,297.76C344.61,297.76 359.28,318.53 361.28,314.23L344.61,297.76Z" style="fill-opacity:0.1;fill-rule:nonzero;"/>
                    </g>
                    <g opacity="0.1">
                        <g transform="matrix(1,0,0,1,-24.78,-112.22)">
                            <path d="M432.76,143C432.85,140.577 432.546,138.156 431.86,135.83C431.571,134.846 431.351,133.844 431.2,132.83C431.072,134.524 431.297,136.227 431.86,137.83C432.335,139.518 432.637,141.251 432.76,143Z" style="fill-rule:nonzero;"/>
                        </g>
                        <g transform="matrix(1,0,0,1,-24.78,-112.22)">
                            <path d="M502.89,165C503.28,162 505.34,159.27 505.53,156.2C505.56,155.689 505.54,155.177 505.47,154.67C505.08,157.77 502.93,160.52 502.81,163.67C502.797,164.115 502.824,164.56 502.89,165Z" style="fill-rule:nonzero;"/>
                        </g>
                        <g transform="matrix(1,0,0,1,-24.78,-112.22)">
                            <path d="M505.08,179.5C503.775,180.902 501.887,181.617 499.98,181.43C498.099,181.223 496.265,180.71 494.55,179.91C492.25,178.98 489.84,177.91 488.45,175.91C487.18,174.05 486.77,171.44 484.79,170.37C482.51,169.15 479.79,170.8 477.32,171.37C474.38,172.07 471.32,171.25 468.47,170.2C464.21,168.63 458.25,165.74 453.88,168.72C450.48,171.04 451.8,175.97 450.93,179.48C449.58,184.92 443.79,188.48 442.7,193.99C442.21,196.42 442.53,199.39 440.56,200.9C439.797,201.416 438.93,201.758 438.02,201.9C434.84,202.6 430.92,202.76 429.02,200.14C428.471,199.391 428.126,198.512 428.02,197.59C427.762,199.178 428.12,200.806 429.02,202.14C430.96,204.76 434.88,204.6 438.02,203.9C438.93,203.758 439.797,203.416 440.56,202.9C442.56,201.39 442.21,198.42 442.7,195.99C443.79,190.49 449.58,186.92 450.93,181.48C451.8,177.97 450.48,173.04 453.88,170.72C458.25,167.72 464.21,170.63 468.47,172.2C471.3,173.25 474.38,174.07 477.32,173.37C479.84,172.78 482.51,171.13 484.79,172.37C486.79,173.44 487.18,176.05 488.45,177.91C489.84,179.91 492.25,181.03 494.55,181.91C496.265,182.71 498.099,183.223 499.98,183.43C501.887,183.617 503.775,182.902 505.08,181.5C506.061,180.187 506.452,178.523 506.16,176.91C506.055,177.859 505.68,178.758 505.08,179.5Z" style="fill-rule:nonzero;"/>
                        </g>
                        <g transform="matrix(1,0,0,1,-24.78,-112.22)">
                            <path d="M424.44,172.67C424.11,170.14 421.98,168.27 420.88,165.97C420.467,165.104 420.203,164.174 420.1,163.22C419.909,164.845 420.179,166.492 420.88,167.97C421.95,170.2 423.97,172.04 424.39,174.45C424.492,173.862 424.509,173.263 424.44,172.67Z" style="fill-rule:nonzero;"/>
                        </g>
                        <g transform="matrix(1,0,0,1,-24.78,-112.22)">
                            <path d="M430,188.29C430.289,187.202 430.08,186.039 429.43,185.12C428.3,183.83 426.15,184.12 424.77,183.12C424.031,182.536 423.558,181.677 423.46,180.74C423.24,182.37 423.46,184.17 424.77,185.12C426.08,186.07 428.3,185.87 429.43,187.12C429.712,187.458 429.907,187.86 430,188.29Z" style="fill-rule:nonzero;"/>
                        </g>
                    </g>
                    <g transform="matrix(1,0,0,1,-24.78,-112.22)">
                        <path d="M192.62,706.21C192.62,706.21 151.26,703.71 156.13,732.7C156.13,732.7 155.13,737.82 159.81,740.15C159.81,740.15 159.88,738 164.05,738.73C165.533,738.977 167.04,739.048 168.54,738.94C170.569,738.802 172.5,738.008 174.04,736.68C175.58,735.352 185.67,731.87 190.19,712.87C190.19,712.87 193.53,708.72 193.4,707.66L186.4,710.66C186.4,710.66 188.79,715.66 186.91,719.88C186.91,719.88 186.68,710.88 185.34,711.05C185.07,711.1 181.71,712.8 181.71,712.8C181.71,712.8 185.82,721.57 182.71,727.95C182.71,727.95 183.89,717.14 180.42,713.43L175.51,716.3C175.51,716.3 180.31,725.36 177.05,732.76C177.05,732.76 177.89,721.42 174.48,717L170.02,720.47C170.02,720.47 174.53,729.4 171.78,735.54C171.78,735.54 171.42,722.33 169.06,721.34C169.06,721.34 165.16,724.77 164.57,726.18C164.57,726.18 167.65,732.67 165.74,736.09C165.74,736.09 164.57,727.29 163.6,727.25C163.6,727.25 159.72,733.08 159.32,737.07C159.32,737.07 159.49,731.13 162.66,726.69C160.423,727.118 158.359,728.189 156.72,729.77C155.081,731.351 157.32,725.65 163.62,725.29C163.62,725.29 166.83,720.87 167.69,720.6C167.69,720.6 161.42,720.08 157.63,721.76C157.63,721.76 160.97,717.88 168.83,719.64L173.23,716.05C173.23,716.05 164.99,714.93 161.49,716.17C161.49,716.17 165.49,712.73 174.42,715.24L179.2,712.38C179.2,712.38 172.2,710.86 167.98,711.38C167.98,711.38 172.4,709 180.6,711.58L184.03,710.04C184.03,710.04 178.88,709.04 177.37,708.87C175.86,708.7 175.78,708.29 175.78,708.29C179.041,707.751 182.388,708.125 185.45,709.37C188.512,710.615 192.75,706.66 192.62,706.21Z" style="fill-rule:nonzero;"/>
                    </g>
                    <ellipse cx="139.35" cy="630.46" rx="29.28" ry="4.95" style="fill-opacity:0.1;"/>
                </g>
            </g>
        </g>
    </g>
    <defs>
        <linearGradient id="_Linear2" x1="0" y1="0" x2="1" y2="0" gradientUnits="userSpaceOnUse" gradientTransform="matrix(3.94416e-14,-644.13,644.13,3.94416e-14,501.81,766.64)"><stop offset="0" style="stop-color:rgb(128,128,128);stop-opacity:0.25"/><stop offset="0.54" style="stop-color:rgb(128,128,128);stop-opacity:0.12"/><stop offset="1" style="stop-color:rgb(128,128,128);stop-opacity:0.1"/></linearGradient>
    </defs>
</svg>
