<?xml version="1.0" encoding="UTF-8" standalone="no"?>
<!DOCTYPE svg PUBLIC "-//W3C//DTD SVG 1.1//EN" "http://www.w3.org/Graphics/SVG/1.1/DTD/svg11.dtd">
<svg width="100%" height="100%" viewBox="0 0 148 99" version="1.1" xmlns="http://www.w3.org/2000/svg" xmlns:xlink="http://www.w3.org/1999/xlink" xml:space="preserve" xmlns:serif="http://www.serif.com/" style="fill-rule:evenodd;clip-rule:evenodd;stroke-miterlimit:10;">
    <g transform="matrix(1,0,0,1,-668.922,-2828.1)">
        <g id="undraw_version_control_9bpv" transform="matrix(0.14208,0,0,0.14208,742.678,2877.35)">
            <g transform="matrix(1,0,0,1,-519.115,-346.655)">
                <clipPath id="_clip1">
                    <rect x="0" y="0" width="1038.23" height="693.31"/>
                </clipPath>
                <g clip-path="url(#_clip1)">
                    <g transform="matrix(1,0,0,1,-80.89,-103.35)">
                        <path d="M696.13,214.75C631.41,212.5 569.77,191.61 510.9,168.75C452.03,145.89 393.74,120.56 330.57,108.45C289.94,100.66 243.48,99.56 210.74,121.34C179.24,142.34 169.06,178.49 163.58,212.06C159.47,237.33 157.04,263.91 168.33,287.56C176.16,303.98 190.07,317.78 199.69,333.51C233.15,388.23 209.5,455.71 173.23,509.14C156.23,534.2 136.49,558.14 123.36,584.8C110.23,611.46 104.16,642.05 115.64,669.27C127.03,696.27 154.16,716.51 183.54,730.76C243.23,759.7 313.54,767.99 382.16,772.68C533.98,783.07 686.62,778.57 838.84,774.07C895.18,772.4 951.76,770.71 1007.18,762C1037.96,757.16 1069.74,749.48 1092.08,731C1120.44,707.47 1127.47,667.62 1108.47,638.12C1076.59,588.63 988.47,576.33 966.16,523.22C953.89,493.99 966.49,461.42 984.31,434.31C1022.55,376.14 1086.64,325.12 1090.02,258.63C1092.34,212.97 1061.53,167.24 1013.89,145.63C963.95,122.98 894.71,125.83 857.89,163.32C819.93,201.88 753.27,216.73 696.13,214.75Z" style="fill-opacity:0.1;fill-rule:nonzero;"/>
                    </g>
                    <g transform="matrix(1,0,0,1,-80.89,-103.35)">
                        <path d="M529.62,754.84C528.62,751.22 527.62,747.56 525.62,744.41C523.766,741.739 521.563,739.328 519.07,737.24C511.82,730.66 502.92,723.98 493.31,725.64C490.338,726.297 487.466,727.347 484.77,728.76C483.37,729.41 481.96,730.06 480.52,730.61C476.467,732.304 471.985,732.696 467.7,731.73C465.5,731.14 463.45,730.08 461.28,729.42C460.25,729.11 459.196,728.883 458.13,728.74C460.227,727.802 462.261,726.729 464.22,725.53C475,718.93 483.6,707 482.4,694.24C481.99,689.95 480.52,685.84 479.06,681.79L475.22,671.17C473.56,666.57 471.84,661.88 468.81,658.06C465.44,653.8 460.64,650.91 455.68,648.76C445.03,644.13 433.39,642.5 421.9,640.92L421.1,640.81L421.1,516.68C421.1,512.291 417.489,508.68 413.1,508.68L398,508.68C397.333,504.6 396.667,500.527 396,496.46C394.1,484.85 392.13,473.03 386.78,462.58C383.28,455.74 377.71,449.21 370.2,447.87C368.724,447.737 367.274,447.4 365.89,446.87C363.69,445.79 362.49,443.39 360.8,441.62C356.44,437.05 349.35,436.98 343.51,434.62C338.35,432.57 334.13,428.71 329.43,425.74C324.73,422.77 318.89,420.66 313.69,422.59C313.69,422.97 313.62,423.35 313.58,423.72L310.24,422.18C306.64,420.51 302.97,418.8 300.08,416.06C296.37,412.56 294.39,407.92 292.85,402.99C292.69,402.48 292.54,401.99 292.38,401.44C298.771,394.92 303.099,386.657 304.82,377.69L305.63,380.32C305.812,380.911 306.026,381.492 306.27,382.06C306.683,383.159 307.372,384.133 308.27,384.89C308.526,385.091 308.809,385.256 309.11,385.38C309.386,385.49 309.675,385.563 309.97,385.6C310.385,385.651 310.807,385.621 311.21,385.51C312.579,385.086 313.683,384.063 314.21,382.73C314.369,382.337 314.487,381.928 314.56,381.51C314.599,381.258 314.622,381.005 314.63,380.75L314.63,379.71C314.63,379.61 314.63,379.38 314.58,379.21L314.58,378.95C314.58,378.75 314.52,378.55 314.48,378.36C314.44,378.17 314.48,378.25 314.48,378.2C314.43,377.95 314.37,377.69 314.32,377.44L314.32,377.25C314.32,377.19 314.23,376.84 314.18,376.63C314.13,376.42 314.11,376.36 314.08,376.22L314.08,376.16C313.98,375.76 313.89,375.37 313.8,374.97C313.073,371.499 312.888,367.937 313.25,364.41C313.849,359.234 314.804,354.105 316.11,349.06L316.32,348.15C316.4,347.8 316.48,347.45 316.55,347.09C316.71,346.37 316.87,345.65 317.02,344.92L317.38,343.08L317.65,341.44L317.65,341.23C318.211,337.514 318.329,333.744 318,330C317.54,324.77 315.92,319.82 312.37,315.88C309.86,313.09 306.55,311.03 304.22,308.1C302.04,305.36 300.81,301.98 298.55,299.29C292.31,291.84 276.29,286.1 266.46,285.1C255.2,283.96 237.01,286.84 227.93,293.49C224.57,295.94 222.27,299.49 219.93,302.85C215.63,309.1 210.75,315.34 203.86,318.85C201.26,320.17 198.28,321.17 196.55,323.47C195.521,325.029 194.854,326.799 194.6,328.65C193.275,335.161 192.585,341.786 192.54,348.43L192.54,350.93C192.561,353.421 193.091,355.882 194.1,358.16C194.26,358.5 194.44,358.83 194.63,359.16L194.75,359.37C195.96,361.099 197.03,362.921 197.95,364.82C198.179,365.352 198.344,365.909 198.44,366.48C198.611,367.945 198.516,369.429 198.16,370.86C198.16,371.08 198.07,371.3 198.03,371.52L197.94,371.95C197.94,372.1 197.94,372.25 197.86,372.39C197.78,372.82 197.71,373.25 197.65,373.67C197.498,374.827 197.573,376.002 197.87,377.13C198.147,378.401 198.956,379.494 200.09,380.13C200.66,380.403 201.266,380.592 201.89,380.69C202.52,380.8 203.16,380.87 203.78,381.01C204.577,381.192 205.347,381.478 206.07,381.86C206.762,382.191 207.411,382.608 208,383.1C208.292,383.365 208.569,383.645 208.83,383.94C209.358,384.545 209.833,385.194 210.25,385.88C210.463,386.233 210.663,386.593 210.85,386.96C211.567,388.407 212.139,389.921 212.56,391.48C212.82,392.41 213.04,393.35 213.23,394.29C213.32,394.71 213.4,395.13 213.47,395.54C213.54,395.95 213.61,396.37 213.67,396.78C213.943,396.764 214.212,396.711 214.47,396.62C215.94,396.09 216.76,394.38 217.22,392.72C217.3,392.44 217.37,392.17 217.43,391.9C217.66,390.9 217.9,389.8 218.13,388.75C222.071,397.12 228.429,404.121 236.38,408.85C236.66,409.68 236.93,410.5 237.17,411.34C238.48,415.87 239.11,420.61 236.84,424.57C235.22,427.38 232.5,429.11 229.46,430.31C229.022,429.726 228.458,429.247 227.81,428.91C225.18,427.59 222.02,429.19 219.81,431.16C215.81,434.78 212.55,439.97 207.29,441.16C205.39,441.6 203.29,441.51 201.71,442.67C200.665,443.653 199.79,444.802 199.12,446.07C196.803,449.397 192.942,451.322 188.89,451.17C187.06,451.08 184.89,450.66 183.64,452C182.71,453 182.64,454.58 181.64,455.53C180.3,456.85 178.1,456.21 176.23,456.13C172.67,455.98 169.36,458.28 167.33,461.23C165.3,464.18 164.33,467.71 163.33,471.23L163.33,471.29C163.073,471.477 162.83,471.681 162.6,471.9C161.63,472.933 160.879,474.15 160.39,475.48C152.303,493.892 147.53,513.588 146.29,533.66C146.31,534.638 146.09,535.606 145.65,536.48C145.203,537.051 144.711,537.586 144.18,538.08C143.362,539.082 142.915,540.336 142.915,541.629C142.915,543.372 143.727,545.019 145.11,546.08C145.398,545.558 145.758,545.08 146.18,544.66C146.07,545.12 145.97,545.57 145.9,545.98C145.498,548.897 145.461,551.853 145.79,554.78C146.737,568.673 147.693,582.557 148.66,596.43C148.93,600.36 149.2,604.28 149.56,608.2C150.26,615.787 151.26,623.343 152.56,630.87C152.62,631.21 152.69,631.56 152.78,631.87C144.63,634.46 137.38,639.14 134.33,646.95C133.27,649.65 132.79,652.59 131.49,655.18C130.06,658.02 127.71,660.29 126.15,663.07C123.46,667.85 123.34,673.71 124.32,679.07C126.21,689.52 131.86,698.86 139.32,706.46L138.32,706.46C135.883,706.73 133.543,707.569 131.49,708.91C115.71,718.13 106.69,737.91 109.98,755.97C110.63,759.5 111.76,763.08 114.12,765.77C116.081,767.908 118.604,769.454 121.4,770.23C123.149,770.756 124.949,771.092 126.77,771.23C139.07,772.23 150.98,766.53 163.31,766.05C167.395,765.985 171.479,766.175 175.54,766.62C181.48,767.113 187.43,767.427 193.39,767.56C203.08,767.79 208.53,765.21 214.71,757.97C216.229,756.169 217.497,754.171 218.48,752.03C223.74,751.73 229.55,751.27 233.75,750.93L233.81,751.51C234.04,753.51 234.39,755.81 235.99,757.07C236.89,757.691 237.913,758.11 238.99,758.3C249.09,760.78 259.31,763.3 269.71,763.3C274.591,763.202 279.462,762.828 284.3,762.18L302.57,760.07C307.894,760.745 313.148,761.889 318.27,763.49C323.55,765.28 328.48,767.94 333.64,770.05C345.64,774.91 358.54,776.65 371.32,778.35C373.5,778.64 376,778.84 377.61,777.35C379.69,775.35 379,772.01 378.41,769.21C378.17,768.06 377.99,766.91 377.85,765.75C386.474,768.024 394.912,770.952 403.09,774.51L404.52,775.14C404.94,777.32 406.95,779.06 408.88,781.41C409.514,782.402 410.255,783.321 411.09,784.15C412.044,784.77 413.13,785.16 414.26,785.29C427.751,787.804 441.527,788.426 455.19,787.14C457.986,786.759 460.814,786.662 463.63,786.85C465.699,787.132 467.739,787.59 469.73,788.22L481.3,791.54C489.83,793.98 498.56,796.45 507.41,795.9C509.204,795.787 510.987,795.53 512.74,795.13C519.74,793.51 526.26,789.6 529.62,783.31C534.37,774.76 532.18,764.24 529.62,754.84Z" style="fill:url(#_Linear2);fill-rule:nonzero;"/>
                    </g>
                    <g transform="matrix(1,0,0,1,-80.89,-103.35)">
                        <path d="M205.91,752.89C203.8,748.09 201.8,742.57 203.91,737.77C205.287,734.944 207.654,732.719 210.56,731.52C213.436,730.347 216.468,729.599 219.56,729.3C229.264,728.027 239.084,727.893 248.82,728.9C249.53,734.52 248.03,740.22 246.74,745.65C245.57,750.65 244.9,751.39 239.74,751.65C236.4,751.83 206.7,754.66 205.91,752.89Z" style="fill:rgb(251,190,190);fill-rule:nonzero;"/>
                    </g>
                    <ellipse cx="214.07" cy="577.16" rx="143" ry="40" style="fill:rgb(70,67,83);"/>
                    <ellipse cx="214.07" cy="577.16" rx="143" ry="40" style="fill-opacity:0.1;"/>
                    <g transform="matrix(1,0,0,1,-80.89,-103.35)">
                        <path d="M320.6,469.35C315.7,478.819 307.555,486.218 297.66,490.19C291.817,492.319 285.667,493.488 279.45,493.65C272.66,493.96 265.73,493.52 259.35,491.2C250.79,488.1 243.68,481.76 238.35,474.37C233.02,466.98 229.35,458.54 226.16,450.03C224.48,445.6 222.88,440.88 223.67,436.2C228.82,435.03 234.46,433.31 237.12,428.74C239.39,424.82 238.76,420.12 237.45,415.64C237.08,414.37 236.65,413.11 236.22,411.9C235.22,409 231.77,403.49 234.22,401.01C235.75,399.44 242.16,398.64 244.37,397.62C251.18,394.48 257.46,389.94 264.94,388.45C271.41,387.16 278.09,388.37 284.55,389.71C285.407,389.835 286.23,390.131 286.97,390.58C287.814,391.291 288.438,392.228 288.77,393.28C290.61,397.76 291.69,402.71 293.17,407.38C294.71,412.27 296.69,416.86 300.4,420.33C303.29,423.04 306.97,424.74 310.57,426.39L319.43,430.45C321.006,431.04 322.435,431.965 323.62,433.16C324.779,434.752 325.471,436.636 325.62,438.6C327.207,449.121 325.451,459.88 320.6,469.35Z" style="fill:rgb(251,190,190);fill-rule:nonzero;"/>
                    </g>
                    <g transform="matrix(1,0,0,1,-80.89,-103.35)">
                        <path d="M293.13,407.38C278.665,422.44 255.674,425.851 237.46,415.64C237.09,414.37 236.66,413.11 236.23,411.9C235.23,409 231.78,403.49 234.23,401.01C235.76,399.44 242.17,398.64 244.38,397.62C251.19,394.48 257.47,389.94 264.95,388.45C271.42,387.16 278.1,388.37 284.56,389.71C285.417,389.835 286.24,390.131 286.98,390.58C287.824,391.291 288.448,392.228 288.78,393.28C290.57,397.76 291.65,402.71 293.13,407.38Z" style="fill-opacity:0.1;fill-rule:nonzero;"/>
                    </g>
                    <circle cx="179.07" cy="270.16" r="46" style="fill:rgb(251,190,190);"/>
                    <g transform="matrix(1,0,0,1,-80.89,-103.35)">
                        <path d="M400.11,522.8L396.33,499.9C394.42,488.41 392.45,476.7 387.11,466.35C383.6,459.57 378.03,453.11 370.52,451.77C369.041,451.638 367.587,451.302 366.2,450.77C364,449.71 362.8,447.33 361.11,445.57C356.75,441.05 349.65,440.98 343.81,438.68C338.65,436.68 334.43,432.83 329.73,429.89C325.03,426.95 319.18,424.89 313.98,426.77C313.14,435.72 312.25,444.87 308.45,453.02C302.011,466.834 288.089,475.704 272.848,475.704C264.312,475.704 256.004,472.921 249.19,467.78C240.28,461.07 234.57,450.72 231.91,439.89C231.26,437.25 230.52,434.22 228.09,433.01C225.46,431.69 222.3,433.29 220.09,435.23C216.09,438.82 212.82,443.96 207.56,445.17C205.66,445.61 203.56,445.52 201.98,446.67C200.93,447.639 200.051,448.778 199.38,450.04C197.044,453.341 193.191,455.247 189.15,455.1C187.32,455.01 185.15,454.59 183.9,455.92C182.97,456.92 182.9,458.48 181.9,459.41C180.55,460.72 178.36,460.08 176.48,460.01C172.92,459.86 169.61,462.14 167.57,465.01C165.53,467.88 164.57,471.43 163.57,474.87C174.5,499.21 184.5,523.58 195.43,547.92C195.942,548.837 196.214,549.869 196.22,550.92C196.001,552.01 195.536,553.037 194.86,553.92C189.5,562.53 189.67,573.36 190.26,583.48C190.85,593.6 191.57,604.29 187.05,613.36C185.82,615.85 184.22,618.13 183.05,620.62C180.31,626.26 179.32,644.3 180.92,650.36L407,650.36C402.69,638.51 404.33,614.73 405.23,602.15C405.86,593.35 404.23,584.56 403.53,575.76C402,557.79 403.08,540.74 400.11,522.8Z" style="fill-rule:nonzero;"/>
                    </g>
                    <g transform="matrix(1,0,0,1,-80.89,-103.35)">
                        <path d="M146.25,549C145.85,551.894 145.81,554.826 146.13,557.73L149,599C149.27,602.89 149.54,606.77 149.9,610.65C150.59,618.18 151.62,625.65 152.9,633.11C152.96,635.301 154.809,637.056 157,637C169.65,639.68 182.72,639.57 195.63,638.84C215.33,637.74 235,635.23 254.73,635.66C259.81,635.77 265.73,635.66 268.81,631.66C271.89,627.66 270.1,621.19 266.08,617.96C262.06,614.73 256.6,613.96 251.44,613.96C244.61,613.89 237.78,614.86 230.97,614.46C224.72,614.09 218.61,612.58 212.55,611.07L195.55,606.84C196.2,601.69 198.16,596.84 200.02,591.95C203.36,583.28 206.48,574.32 206.54,565.03C206.6,555.74 203.1,545.97 195.49,540.65C189.23,536.28 181.17,535.47 173.54,535.65C167.99,535.81 158.4,534.48 153.33,536.65C149.32,538.41 147,545.07 146.25,549Z" style="fill:rgb(251,190,190);fill-rule:nonzero;"/>
                    </g>
                    <g transform="matrix(1,0,0,1,-80.89,-103.35)">
                        <path d="M411.68,643.36C415.01,642.09 418.68,642.55 422.25,643.03C433.74,644.6 445.4,646.21 456.05,650.8C461.05,652.94 465.81,655.8 469.19,660.01C472.19,663.8 473.94,668.44 475.6,673.01L479.44,683.53C480.9,687.53 482.38,691.61 482.79,695.86C483.99,708.45 475.38,720.32 464.55,726.86C453.72,733.4 440.97,735.73 428.55,738.17C416.13,740.61 403.66,743.31 391.29,746.17C385.52,747.667 379.667,748.819 373.76,749.62C360.52,751.12 346.68,748.91 334.1,753.29C329.1,755.04 324.19,757.64 319,758.85C315.553,759.575 312.067,760.106 308.56,760.44L284.75,763.16C279.908,763.808 275.034,764.181 270.15,764.28C259.75,764.28 249.52,761.82 239.42,759.36C238.346,759.172 237.324,758.759 236.42,758.15C234.82,756.89 234.47,754.66 234.24,752.64C233.22,743.7 232.327,734.75 231.56,725.79C231.32,722.88 231.14,719.73 232.73,717.28C234.73,714.28 238.63,713.34 242.19,712.76C257.286,710.29 272.578,709.229 287.87,709.59C293.68,703.78 303.26,703.75 310.87,700.59C313.67,699.304 316.379,697.831 318.98,696.18C332.592,688.238 347.806,683.431 363.51,682.11C366.585,682.016 369.641,681.58 372.62,680.81C378.51,678.98 383.88,674 389.93,675.22C390.68,673.15 391.2,670.38 392.93,668.96C393.79,668.23 394.85,667.74 395.64,666.96C397.31,665.27 397.46,662.61 397.21,660.25C396.96,657.89 396.4,655.47 397.01,653.17C397.264,652.299 397.637,651.468 398.12,650.7C401.12,645.52 405.65,642.86 411.68,643.36Z" style="fill:rgb(70,67,83);fill-rule:nonzero;"/>
                    </g>
                    <g transform="matrix(1,0,0,1,-80.89,-103.35)">
                        <path d="M411.68,643.36C415.01,642.09 418.68,642.55 422.25,643.03C433.74,644.6 445.4,646.21 456.05,650.8C461.05,652.94 465.81,655.8 469.19,660.01C472.19,663.8 473.94,668.44 475.6,673.01L479.44,683.53C480.9,687.53 482.38,691.61 482.79,695.86C483.99,708.45 475.38,720.32 464.55,726.86C453.72,733.4 440.97,735.73 428.55,738.17C416.13,740.61 403.66,743.31 391.29,746.17C385.52,747.667 379.667,748.819 373.76,749.62C360.52,751.12 346.68,748.91 334.1,753.29C329.1,755.04 324.19,757.64 319,758.85C315.553,759.575 312.067,760.106 308.56,760.44L284.75,763.16C279.908,763.808 275.034,764.181 270.15,764.28C259.75,764.28 249.52,761.82 239.42,759.36C238.346,759.172 237.324,758.759 236.42,758.15C234.82,756.89 234.47,754.66 234.24,752.64C233.22,743.7 232.327,734.75 231.56,725.79C231.32,722.88 231.14,719.73 232.73,717.28C234.73,714.28 238.63,713.34 242.19,712.76C257.286,710.29 272.578,709.229 287.87,709.59C293.68,703.78 303.26,703.75 310.87,700.59C313.67,699.304 316.379,697.831 318.98,696.18C332.592,688.238 347.806,683.431 363.51,682.11C366.585,682.016 369.641,681.58 372.62,680.81C378.51,678.98 383.88,674 389.93,675.22C390.68,673.15 391.2,670.38 392.93,668.96C393.79,668.23 394.85,667.74 395.64,666.96C397.31,665.27 397.46,662.61 397.21,660.25C396.96,657.89 396.4,655.47 397.01,653.17C397.264,652.299 397.637,651.468 398.12,650.7C401.12,645.52 405.65,642.86 411.68,643.36Z" style="fill-opacity:0.05;fill-rule:nonzero;"/>
                    </g>
                    <g transform="matrix(1,0,0,1,-80.89,-103.35)">
                        <path d="M215.11,759.07C208.92,766.24 203.47,768.8 193.78,768.57C187.82,768.43 181.867,768.12 175.92,767.64C171.855,767.2 167.768,767.01 163.68,767.07C151.34,767.55 139.43,773.2 127.12,772.21C125.3,772.067 123.5,771.732 121.75,771.21C118.958,770.441 116.433,768.91 114.46,766.79C112.1,764.12 110.97,760.58 110.32,757.08C107.03,739.14 116.05,719.6 131.84,710.47C133.9,709.14 136.242,708.307 138.68,708.04C141.07,708.03 143.434,708.549 145.6,709.56L145.75,709.62C152.165,712.26 157.992,716.148 162.89,721.06C163.633,721.911 164.52,722.625 165.51,723.17C166.498,723.543 167.544,723.739 168.6,723.75L181.74,724.58C183.966,724.646 186.179,724.952 188.34,725.49C190.722,726.322 193.042,727.324 195.28,728.49C202.35,731.65 210.19,732.49 217.83,733.71C218.566,733.751 219.269,734.032 219.83,734.51C220.135,734.889 220.347,735.334 220.45,735.81C222.628,743.962 220.625,752.685 215.11,759.07Z" style="fill:rgb(63,61,86);fill-rule:nonzero;"/>
                    </g>
                    <g transform="matrix(1,0,0,1,-80.89,-103.35)">
                        <path d="M145.75,709.63C140.652,714.498 136.229,720.027 132.6,726.07C126.776,736.042 123.117,747.13 121.86,758.61C121.383,762.798 121.347,767.024 121.75,771.22C118.958,770.451 116.433,768.92 114.46,766.8C112.1,764.13 110.97,760.59 110.32,757.09C107.03,739.15 116.05,719.61 131.84,710.48C133.9,709.15 136.242,708.317 138.68,708.05C141.07,708.04 143.434,708.559 145.6,709.57L145.75,709.63Z" style="fill-opacity:0.1;fill-rule:nonzero;"/>
                    </g>
                    <g transform="matrix(1,0,0,1,-80.89,-103.35)">
                        <path d="M400.24,734.51C407.59,734.31 415.84,733.94 421.24,738.89C426.39,743.57 427.07,751.29 427.41,758.24L427.8,766.31C427.92,768.77 428.02,771.31 427.03,773.59C425.27,777.59 420.44,779.52 416.03,779.29C411.62,779.06 407.57,777.13 403.54,775.39C392.599,770.677 381.207,767.088 369.54,764.68C369.92,759.1 370.553,753.547 371.44,748.02C372.05,744.19 372.15,737.78 374.71,734.6C377.42,731.24 380.95,733.06 384.63,733.68C389.794,734.468 395.022,734.746 400.24,734.51Z" style="fill:rgb(251,190,190);fill-rule:nonzero;"/>
                    </g>
                    <g transform="matrix(1,0,0,1,-80.89,-103.35)">
                        <path d="M206,653.42C206,654.42 204.43,653.42 204.29,652.35C203.19,644.26 196.77,637.59 189.29,634.35C181.81,631.11 173.29,630.94 165.19,631.71C152.94,632.87 139.19,637.56 134.71,649.01C133.65,651.69 133.17,654.59 131.87,657.16C130.43,659.98 128.08,662.23 126.52,664.97C123.83,669.71 123.72,675.52 124.69,680.88C127.3,695.18 137.08,707.41 148.93,715.88C160.78,724.35 174.63,729.41 188.44,733.97C224.957,746.013 262.422,754.962 300.44,760.72C306.6,761.65 312.82,762.51 318.72,764.49C324,766.26 328.94,768.91 334.1,770.99C346.1,775.81 359.01,777.53 371.8,779.22C373.98,779.5 376.48,779.7 378.09,778.22C380.17,776.29 379.48,772.93 378.89,770.16C376.72,759.631 378.542,748.662 384,739.4C386.14,735.8 388.92,732.11 388.52,727.94C388.04,723.08 383.2,719.64 378.38,718.86C373.56,718.08 368.66,719.23 363.82,719.86C362.15,720.08 360.33,720.22 358.87,719.37C358.151,718.884 357.498,718.306 356.93,717.65C350.108,711.069 339.755,709.622 331.39,714.08C329.6,715.08 326.89,712.85 325.03,712.01L304,702.49C279.84,691.56 255.56,680.58 230,673.66C227.961,673.259 226.022,672.453 224.3,671.29C223.03,670.29 222.12,668.93 220.95,667.82C218.4,665.41 214.85,664.45 211.79,662.74C208.73,661.03 205.3,656.85 206,653.42Z" style="fill:rgb(70,67,83);fill-rule:nonzero;"/>
                    </g>
                    <g transform="matrix(1,0,0,1,-80.89,-103.35)">
                        <path d="M530.21,784.11C526.85,790.34 520.33,794.22 513.33,795.82C511.573,796.216 509.788,796.471 507.99,796.58C499.14,797.13 490.4,794.68 481.87,792.26L470.29,789C468.299,788.373 466.258,787.918 464.19,787.64C461.374,787.452 458.546,787.549 455.75,787.93C442.064,789.203 428.267,788.584 414.75,786.09C413.619,785.968 412.533,785.581 411.58,784.96C410.745,784.142 410.004,783.233 409.37,782.25C406.22,778.46 402.83,776.25 406.56,771.25C408.71,768.35 412.7,766.9 414.37,763.57C416.04,760.24 414.97,755.51 413.98,752.07C412.63,747.32 408.19,745.27 406.6,740.91C405.41,737.62 407.41,733.8 410.42,732.01C413.43,730.22 417.15,730.08 420.62,730.54C424.09,731 427.49,731.98 430.98,732.25C441.24,733.07 451.73,727.78 461.58,730.76C463.75,731.42 465.8,732.47 468,733.05C472.288,734.009 476.77,733.621 480.83,731.94C482.27,731.4 483.68,730.75 485.08,730.11C487.78,728.704 490.655,727.665 493.63,727.02C503.24,725.37 512.15,732.02 519.4,738.51C521.889,740.575 524.091,742.963 525.95,745.61C527.95,748.73 529.01,752.36 529.95,755.94C532.6,765.19 534.79,775.61 530.21,784.11Z" style="fill:rgb(63,61,86);fill-rule:nonzero;"/>
                    </g>
                    <g transform="matrix(1,0,0,1,-80.89,-103.35)">
                        <path d="M530.21,784.11C526.85,790.34 520.33,794.22 513.33,795.82C516.053,790.53 517.28,784.596 516.88,778.66C516.28,769.15 512.1,760.19 506.77,752.29C503.491,747.427 499.761,742.884 495.63,738.72C492.45,735.52 488.54,732.98 485.12,730.05C487.82,728.644 490.695,727.605 493.67,726.96C503.28,725.31 512.19,731.96 519.44,738.45C521.929,740.515 524.131,742.903 525.99,745.55C527.99,748.67 529.05,752.3 529.99,755.88C532.6,765.19 534.79,775.61 530.21,784.11Z" style="fill-opacity:0.1;fill-rule:nonzero;"/>
                    </g>
                    <g transform="matrix(1,0,0,1,-80.89,-103.35)">
                        <path d="M163,475.61C162.026,476.63 161.27,477.838 160.78,479.16C152.697,497.377 147.922,516.889 146.68,536.78C146.702,537.75 146.478,538.71 146.03,539.57C145.588,540.142 145.096,540.675 144.56,541.16C143.72,542.156 143.259,543.417 143.259,544.719C143.259,546.47 144.092,548.12 145.5,549.16C147.15,546.05 151.1,545.04 154.61,544.77C171.42,543.44 187.84,551.26 204.7,550.67C203.51,546.56 201.8,542.61 200.83,538.45C196.54,519.98 207.24,499.87 200.68,482.08C199.37,478.52 197.18,475.02 193.73,473.46C192.302,472.883 190.807,472.487 189.28,472.28C185.02,471.51 176.54,468.22 172.42,469.54C170.9,470.03 170.3,471.46 169.04,472.32C167.13,473.55 164.59,474 163,475.61Z" style="fill-rule:nonzero;"/>
                    </g>
                    <path d="M340.57,416.63C340.57,412.231 336.999,408.66 332.6,408.66L125.54,408.66C121.141,408.66 117.57,412.231 117.57,416.63L117.57,542.69C117.57,547.089 121.141,550.66 125.54,550.66L332.6,550.66C336.999,550.66 340.57,547.089 340.57,542.69L340.57,416.63Z" style="fill:rgb(63,61,86);"/>
                    <circle cx="228.57" cy="479.66" r="6" style="fill:white;"/>
                    <g transform="matrix(1,0,0,1,-80.89,-103.35)">
                        <path d="M228.18,298.85C224.82,301.28 222.52,304.77 220.18,308.12C215.87,314.31 210.99,320.49 204.1,323.94C201.49,325.25 198.51,326.24 196.78,328.52C195.753,330.062 195.087,331.815 194.83,333.65C193.51,340.101 192.82,346.665 192.77,353.25C192.77,356.53 192.91,359.91 194.36,362.89C195.73,365.69 198.2,368.06 198.71,371.11C199.1,373.49 198.22,375.86 197.91,378.25C197.6,380.64 198.14,383.47 200.35,384.61C201.541,385.058 202.784,385.35 204.05,385.48C210.7,386.96 212.93,394.76 213.94,401.21C216.2,401.08 217.22,398.49 217.69,396.38L224.62,365.57C225.37,362.23 226.62,358.36 229.95,357.19C232.18,356.42 234.62,357.14 236.95,357.34C246.1,358.09 253.84,351.02 262.79,349.07C265.655,348.492 268.584,348.297 271.5,348.49C278.56,348.84 286.77,351.74 288.27,358.33C288.52,359.4 288.67,360.68 289.67,361.21C290.67,361.74 291.72,361.29 292.77,361.21C297.25,360.76 299.89,365.8 301.18,369.92L305.88,384.92C306.58,387.19 307.76,389.86 310.22,390.15C312.49,390.43 314.42,388.28 314.76,386.15C315.1,384.02 314.36,381.81 313.87,379.67C311.66,369.82 315.04,359.74 317.1,349.87C319.16,340 319.53,328.66 312.62,321.06C310.11,318.31 306.81,316.26 304.47,313.36C302.29,310.64 301.06,307.3 298.8,304.63C292.55,297.26 276.52,291.57 266.69,290.63C255.46,289.41 237.26,292.26 228.18,298.85Z" style="fill:rgb(63,61,86);fill-rule:nonzero;"/>
                    </g>
                    <g opacity="0.1">
                        <g transform="matrix(1,0,0,1,-80.89,-103.35)">
                            <path d="M310.26,383.15C307.8,382.85 306.62,380.15 305.92,377.92C304.353,372.913 302.787,367.913 301.22,362.92C299.93,358.79 297.29,353.75 292.81,354.21C291.76,354.32 290.63,354.73 289.71,354.21C288.79,353.69 288.56,352.4 288.31,351.33C286.81,344.73 278.6,341.84 271.54,341.49C268.624,341.299 265.696,341.49 262.83,342.06C253.88,344.06 246.14,351.06 236.99,350.33C234.63,350.14 232.19,349.42 229.99,350.19C226.62,351.35 225.41,355.19 224.66,358.57L217.73,389.37C217.26,391.49 216.24,394.08 213.98,394.2C212.98,387.76 210.74,379.96 204.09,378.48C202.826,378.341 201.584,378.049 200.39,377.61C199.52,377.135 198.839,376.376 198.46,375.46C198.28,376.39 198.07,377.32 197.95,378.25C197.65,380.63 198.18,383.47 200.39,384.61C201.581,385.058 202.824,385.35 204.09,385.48C210.74,386.96 212.97,394.76 213.98,401.21C216.24,401.08 217.26,398.49 217.73,396.38L224.66,365.57C225.41,362.23 226.66,358.36 229.99,357.19C232.22,356.42 234.66,357.14 236.99,357.34C246.14,358.09 253.88,351.02 262.83,349.07C265.695,348.492 268.624,348.297 271.54,348.49C278.6,348.84 286.81,351.74 288.31,358.33C288.56,359.4 288.71,360.68 289.71,361.21C290.71,361.74 291.76,361.29 292.81,361.21C297.29,360.76 299.93,365.8 301.22,369.92C302.78,374.927 304.347,379.927 305.92,384.92C306.62,387.19 307.8,389.86 310.26,390.15C312.53,390.43 314.46,388.28 314.8,386.15C314.954,384.358 314.75,382.553 314.2,380.84C313.472,382.329 311.915,383.242 310.26,383.15Z" style="fill-rule:nonzero;"/>
                        </g>
                        <g transform="matrix(1,0,0,1,-80.89,-103.35)">
                            <path d="M198.72,364.11C198.21,361.06 195.72,358.69 194.37,355.89C193.502,354.001 193,351.965 192.89,349.89C192.89,351.01 192.79,352.13 192.78,353.26C192.78,356.54 192.92,359.92 194.37,362.9C195.48,365.17 197.31,367.17 198.23,369.48C198.715,367.734 198.881,365.915 198.72,364.11Z" style="fill-rule:nonzero;"/>
                        </g>
                        <g transform="matrix(1,0,0,1,-80.89,-103.35)">
                            <path d="M317.14,342.83C315.32,351.55 312.48,360.43 313.36,369.17C313.93,362.72 315.81,356.23 317.14,349.83C318.249,344.97 318.64,339.973 318.3,335C318.083,337.632 317.695,340.248 317.14,342.83Z" style="fill-rule:nonzero;"/>
                        </g>
                    </g>
                    <g opacity="0.8">
                        <path d="M330.04,290.49L955.1,290.49" style="fill:none;fill-rule:nonzero;stroke:rgb(63,61,86);stroke-width:3px;"/>
                        <g transform="matrix(1,0,0,1,-80.89,-103.35)">
                            <path d="M466.46,393.83C466.46,393.83 496.35,397.98 480.87,365.91C465.39,333.84 522.87,339.91 522.87,339.91" style="fill:none;fill-rule:nonzero;stroke:rgb(63,61,86);stroke-width:3px;"/>
                        </g>
                        <g transform="matrix(1,0,0,1,-80.89,-103.35)">
                            <path d="M665.53,393.83C665.53,393.83 695.42,389.69 679.94,421.76C664.46,453.83 721.94,447.76 721.94,447.76" style="fill:none;fill-rule:nonzero;stroke:rgb(63,61,86);stroke-width:3px;"/>
                        </g>
                        <g transform="matrix(1,0,0,1,-80.89,-103.35)">
                            <path d="M952.16,393.83C952.16,393.83 922.26,389.69 937.75,421.76C953.24,453.83 895.75,447.76 895.75,447.76" style="fill:none;fill-rule:nonzero;stroke:rgb(63,61,86);stroke-width:3px;"/>
                        </g>
                        <path d="M814.86,344.4L649.93,344.4" style="fill:none;fill-rule:nonzero;stroke:rgb(63,61,86);stroke-width:3px;"/>
                        <circle cx="330.04" cy="290.49" r="18.25"/>
                        <circle cx="442.29" cy="236.3" r="18.25" style="fill:rgb(58,204,108);"/>
                        <circle cx="442.29" cy="290.49" r="18.25"/>
                        <circle cx="514.73" cy="290.49" r="18.25"/>
                        <circle cx="641.35" cy="344.13" r="18.25" style="fill:rgb(255,101,132);"/>
                        <circle cx="737.03" cy="344.13" r="18.25" style="fill:rgb(255,101,132);"/>
                        <circle cx="732.04" cy="290.49" r="18.25"/>
                        <circle cx="950.48" cy="290.49" r="18.25"/>
                        <circle cx="861.12" cy="290.49" r="18.25"/>
                        <rect x="299.38" y="122.66" width="61.23" height="42.2"/>
                        <rect x="411.9" y="122.66" width="61.23" height="42.2" style="fill:rgb(58,204,108);"/>
                        <rect x="610.48" y="122.66" width="61.23" height="42.2" style="fill:rgb(255,101,132);"/>
                    </g>
                    <g transform="matrix(1,0,0,1,-80.89,-103.35)">
                        <path d="M167.24,402.71C167.24,402.71 92.47,371.27 82.67,428C82.67,428 77.56,436.84 84.67,444.14C84.67,444.14 86.2,440.22 93.42,444.27C95.999,445.696 98.738,446.811 101.58,447.59C105.417,448.649 109.497,448.431 113.2,446.97C116.903,445.509 137.79,445.64 158.47,413.47C158.47,413.47 167.34,407.99 167.78,405.93L152.96,406.93C152.96,406.93 154.1,417.78 147.96,424.29C147.96,424.29 153.4,407.45 150.79,406.98C150.26,406.88 142.96,407.84 142.96,407.84C142.96,407.84 144.85,426.71 134.96,436.47C134.96,436.47 144.14,417.28 140.15,408.18L129.21,410.29C129.21,410.29 132.21,430.14 121.39,441.68C121.39,441.68 130.29,421.28 126.85,410.92L116.38,414.44C116.38,414.44 118.9,433.85 109.85,443.44C109.85,443.44 117.75,418.83 114.03,415.44C114.03,415.44 104.61,419.26 102.6,421.44C102.6,421.44 104.09,435.44 98.34,440.49C98.34,440.49 101.87,423.49 100.12,422.79C100.12,422.79 89.18,431.03 85.84,438.14C85.84,438.14 90,427.28 98.75,421.14C98.75,421.14 91.4,419.9 85.75,422.97C85.75,422.97 89.53,415.76 101.4,419.18C101.4,419.18 110.19,413.09 111.95,413.18C111.95,413.18 100.72,408.18 92.61,408.8C92.61,408.8 101.31,403.8 114.69,412.15L125.14,408.38C125.14,408.38 110.64,400.95 103.38,400.98C103.38,400.98 113.04,397.24 127.85,407.64L138.55,405.46C138.55,405.46 126.55,398.11 118.46,396.4C118.46,396.4 128.16,394.86 141.64,404.95L148.95,404.34C148.95,404.34 140.1,399.12 137.42,397.85C134.74,396.58 134.86,395.76 134.86,395.76C141.219,396.849 147.153,399.681 152,403.94C156.847,408.199 167.18,403.64 167.24,402.71Z" style="fill-opacity:0.1;fill-rule:nonzero;"/>
                    </g>
                    <g transform="matrix(1,0,0,1,-80.89,-103.35)">
                        <path d="M164.48,346.35C164.48,346.35 138,285.08 99.85,313.18C99.85,313.18 91.79,315.52 91.85,323.88C91.85,323.88 94.99,322.42 96.98,328.95C97.71,331.266 98.717,333.486 99.98,335.56C101.649,338.379 104.196,340.575 107.23,341.81C110.264,343.045 122.6,355.03 153.23,347.7C153.23,347.7 161.63,349.49 163.06,348.53L153.7,340.66C153.7,340.66 148.19,347.76 140.81,348.1C140.81,348.1 153.64,341.2 152.36,339.43C152.1,339.07 147.21,335.49 147.21,335.49C147.21,335.49 137.59,347.77 126.21,347.96C126.21,347.96 142.6,341.78 145.41,334.11L137.71,329.11C137.71,329.11 128,342.62 115,343.32C115,343.32 131.91,336.27 135.77,328.15L127.54,324.28C127.54,324.28 117.98,337.28 107.17,337.77C107.17,337.77 125.89,327.65 125.6,323.52C125.6,323.52 117.83,320.42 115.36,320.6C115.36,320.6 108.29,329.75 101.98,329.49C101.98,329.49 113.77,321.4 113.13,319.99C113.13,319.99 101.93,318.65 95.9,320.99C95.9,320.99 104.56,316.91 113.25,318.25C113.25,318.25 109.59,313.32 104.5,311.95C104.5,311.95 110.86,309.82 115.96,318.6C115.96,318.6 124.64,320 125.66,321.04C125.66,321.04 121.85,311.65 116.66,307.42C116.66,307.42 124.66,309.42 127.86,321.99L136.22,325.7C136.22,325.7 131.84,313.02 127.5,308.91C127.5,308.91 135.37,312.19 138.25,326.81L145.85,331.6C145.85,331.6 142.91,320.4 139.08,314.77C139.08,314.77 145.72,319.39 147.97,333.06L152.67,336.86C152.67,336.86 150.38,328.72 149.51,326.44C148.64,324.16 149.18,323.74 149.18,323.74C152.339,328.028 154.24,333.112 154.67,338.42C155.1,343.728 163.91,346.86 164.48,346.35Z" style="fill-opacity:0.1;fill-rule:nonzero;"/>
                    </g>
                </g>
            </g>
        </g>
    </g>
    <defs>
        <linearGradient id="_Linear2" x1="0" y1="0" x2="1" y2="0" gradientUnits="userSpaceOnUse" gradientTransform="matrix(3.1302e-14,-511.2,511.2,3.1302e-14,320.96,796.01)"><stop offset="0" style="stop-color:rgb(128,128,128);stop-opacity:0.25"/><stop offset="0.54" style="stop-color:rgb(128,128,128);stop-opacity:0.12"/><stop offset="1" style="stop-color:rgb(128,128,128);stop-opacity:0.1"/></linearGradient>
    </defs>
</svg>
