<?xml version="1.0" encoding="iso-8859-1"?>
<!-- Generator: Adobe Illustrator 19.0.0, SVG Export Plug-In . SVG Version: 6.00 Build 0)  -->
<svg version="1.1" id="Capa_1" xmlns="http://www.w3.org/2000/svg" xmlns:xlink="http://www.w3.org/1999/xlink" x="0px" y="0px"
	 viewBox="0 0 512 512" style="enable-background:new 0 0 512 512;" xml:space="preserve">
<g>
	<g>
		<path d="M496.998,330.996h-26V80.999h26c8.284,0,15-6.716,15-15c0-8.284-6.716-15-15-15c-4.036,0-194.761,0-200.498,0V40.5
			C296.5,18.168,278.332,0,256,0s-40.5,18.168-40.5,40.5V51c-5.798,0-196.363,0-200.498,0c-8.284,0-15,6.716-15,15s6.716,15,15,15
			h26v249.997h-26c-8.284,0-15,6.716-15,15s6.716,15,15,15c17.661,0,130.41,0.001,146.789,0.001l-12.046,57.411
			c-0.008,0.04-0.017,0.08-0.025,0.12l-15.818,75.388c-1.701,8.107,3.492,16.059,11.6,17.76c8.123,1.707,16.063-3.51,17.76-11.6
			l13.341-63.581h64.398v60.5c0,8.284,6.716,15,15,15c8.284,0,15-6.716,15-15v-60.5h64.398l13.341,63.581
			c1.706,8.133,9.675,13.296,17.76,11.6c8.108-1.701,13.301-9.653,11.6-17.76l-15.818-75.388c-0.008-0.04-0.017-0.08-0.025-0.12
			l-12.048-57.412c16.326,0,129.193-0.001,146.789-0.001c8.284,0,15-6.716,15-15S505.282,330.996,496.998,330.996z M245.5,40.5
			c0-5.79,4.71-10.5,10.5-10.5c5.79,0,10.5,4.71,10.5,10.5V51h-21V40.5z M241,406.497h-58.104l9.547-45.5H241V406.497z M271,406.497
			v-45.5h48.557l9.547,45.5H271z M440.998,330.996c-12.527,0-348.893,0-369.997,0V80.999c13.506,0,357.555,0,369.997,0V330.996z"/>
	</g>
</g>
<g>
	<g>
		<path d="M256,110.999c-52.383,0-94.999,42.617-94.999,94.999c0,52.383,42.617,94.999,94.999,94.999s94.999-42.617,94.999-94.999
			C350.999,153.616,308.382,110.999,256,110.999z M256.001,270.998c-35.841,0-65-29.159-65-65
			C191,175.321,212.369,149.557,241,142.765v63.233c0,3.978,1.581,7.793,4.394,10.606l44.703,44.703
			C280.177,267.444,268.498,270.998,256.001,270.998z M311.308,240.094L271,199.785v-57.02c28.631,6.791,50,32.555,50,63.232
			C320.999,218.495,317.446,230.175,311.308,240.094z"/>
	</g>
</g>
<g>
</g>
<g>
</g>
<g>
</g>
<g>
</g>
<g>
</g>
<g>
</g>
<g>
</g>
<g>
</g>
<g>
</g>
<g>
</g>
<g>
</g>
<g>
</g>
<g>
</g>
<g>
</g>
<g>
</g>
</svg>
